<?xml version="1.0" encoding="UTF-8"?>
<!DOCTYPE svg PUBLIC "-//W3C//DTD SVG 1.1//EN" "http://www.w3.org/Graphics/SVG/1.1/DTD/svg11.dtd">
<svg xmlns="http://www.w3.org/2000/svg" version="1.1" width="512px" height="512px" style="shape-rendering:geometricPrecision; text-rendering:geometricPrecision; image-rendering:optimizeQuality; fill-rule:evenodd; clip-rule:evenodd" xmlns:xlink="http://www.w3.org/1999/xlink">
<g><path style="opacity:0.986" fill="#000000" d="M 27.5,-0.5 C 179.5,-0.5 331.5,-0.5 483.5,-0.5C 469.2,153.501 454.7,307.501 440,461.5C 379.056,478.109 318.222,494.776 257.5,511.5C 256.167,511.5 254.833,511.5 253.5,511.5C 192.778,494.776 131.944,478.109 71,461.5C 56.3,307.501 41.8,153.501 27.5,-0.5 Z M 112.5,94.5 C 207.169,94.1667 301.836,94.5 396.5,95.5C 394.691,113.592 392.358,131.592 389.5,149.5C 344.236,168.467 299.236,187.967 254.5,208C 298.165,208.5 341.832,208.667 385.5,208.5C 380.888,265.18 376.054,321.846 371,378.5C 370.612,379.428 369.945,380.095 369,380.5C 331.196,391.601 293.363,402.601 255.5,413.5C 217.411,402.637 179.411,391.47 141.5,380C 139.954,378.56 139.121,376.727 139,374.5C 136.446,347.525 134.28,320.525 132.5,293.5C 151.167,293.5 169.833,293.5 188.5,293.5C 189.831,306.469 190.998,319.469 192,332.5C 192.067,335.047 192.901,337.214 194.5,339C 214.584,344.229 234.75,349.063 255,353.5C 276.526,347.91 298.026,342.244 319.5,336.5C 321.249,311.848 322.916,287.181 324.5,262.5C 259.164,262.36 193.831,261.86 128.5,261C 126.81,243.865 125.143,226.698 123.5,209.5C 123.709,208.914 124.043,208.414 124.5,208C 170.752,188.472 217.086,169.138 263.5,150C 215.168,149.5 166.834,149.333 118.5,149.5C 116.418,131.175 114.418,112.842 112.5,94.5 Z"/></g>
</svg>
