<?xml version="1.0" encoding="UTF-8"?>
<!DOCTYPE svg PUBLIC "-//W3C//DTD SVG 1.1//EN" "http://www.w3.org/Graphics/SVG/1.1/DTD/svg11.dtd">
<svg xmlns="http://www.w3.org/2000/svg" version="1.1" width="512px" height="512px" style="shape-rendering:geometricPrecision; text-rendering:geometricPrecision; image-rendering:optimizeQuality; fill-rule:evenodd; clip-rule:evenodd" xmlns:xlink="http://www.w3.org/1999/xlink">
<g><path style="opacity:0.98" fill="#000000" d="M 244.5,-0.5 C 251.5,-0.5 258.5,-0.5 265.5,-0.5C 268.921,1.06796 272.255,2.90129 275.5,5C 352.685,82.1849 429.518,159.018 506,235.5C 508.099,238.745 509.932,242.079 511.5,245.5C 511.5,252.5 511.5,259.5 511.5,266.5C 509.455,269.579 507.622,272.912 506,276.5C 429.5,353 353,429.5 276.5,506C 272.912,507.622 269.579,509.455 266.5,511.5C 259.5,511.5 252.5,511.5 245.5,511.5C 242.1,509.963 238.767,508.13 235.5,506C 158.333,429.5 81.5,352.667 5,275.5C 2.8703,272.233 1.03697,268.9 -0.5,265.5C -0.5,258.5 -0.5,251.5 -0.5,244.5C 1.54476,241.421 3.37809,238.088 5,234.5C 57.1667,182.333 109.333,130.167 161.5,78C 162.167,77.3333 162.833,77.3333 163.5,78C 182.333,96.8333 201.167,115.667 220,134.5C 219.981,140.254 219.148,145.921 217.5,151.5C 218.987,168.167 227.154,180.167 242,187.5C 242.667,234.833 242.667,282.167 242,329.5C 220.66,340.478 213.66,357.478 221,380.5C 233.627,401.454 251.46,407.621 274.5,399C 294.802,384.908 299.636,366.742 289,344.5C 285.261,338.927 280.428,334.594 274.5,331.5C 273.167,284.167 273.167,236.833 274.5,189.5C 292.194,206.527 309.527,223.86 326.5,241.5C 327.222,244.457 327.055,247.457 326,250.5C 323.972,277.641 336.472,292.974 363.5,296.5C 380.94,295.338 393.107,286.671 400,270.5C 404.485,246.698 395.651,230.198 373.5,221C 365.963,220.216 358.463,220.383 351,221.5C 349.775,221.138 348.609,220.638 347.5,220C 330.333,202.833 313.167,185.667 296,168.5C 294.692,166.866 293.858,165.032 293.5,163C 297.495,141.968 290.162,126.301 271.5,116C 268.768,115.587 266.101,114.92 263.5,114C 256.404,113.419 249.404,113.752 242.5,115C 224,95.1667 204.833,76 185,57.5C 184.333,56.5 184.333,55.5 185,54.5C 201.5,38 218,21.5 234.5,5C 238.088,3.37809 241.421,1.54476 244.5,-0.5 Z"/></g>
</svg>
