<?xml version="1.0" encoding="UTF-8"?>
<!DOCTYPE svg PUBLIC "-//W3C//DTD SVG 1.1//EN" "http://www.w3.org/Graphics/SVG/1.1/DTD/svg11.dtd">
<svg xmlns="http://www.w3.org/2000/svg" version="1.1" width="512px" height="512px" style="shape-rendering:geometricPrecision; text-rendering:geometricPrecision; image-rendering:optimizeQuality; fill-rule:evenodd; clip-rule:evenodd" xmlns:xlink="http://www.w3.org/1999/xlink">
<g><path style="opacity:0.989" fill="#000000" d="M 34.5,-0.5 C 184.833,-0.5 335.167,-0.5 485.5,-0.5C 472.271,152.85 458.771,306.183 445,459.5C 384.433,476.93 323.933,494.264 263.5,511.5C 260.833,511.5 258.167,511.5 255.5,511.5C 195.777,493.899 135.777,476.899 75.5,460.5C 61.6534,306.854 47.9867,153.187 34.5,-0.5 Z M 119.5,94.5 C 213.167,94.5 306.833,94.5 400.5,94.5C 399.456,112.771 397.789,130.937 395.5,149C 323.834,149.5 252.167,149.667 180.5,149.5C 181.702,168.756 183.368,187.923 185.5,207C 254.167,207.333 322.833,207.667 391.5,208C 385.6,265.733 380.267,323.566 375.5,381.5C 336.792,391.468 298.292,402.135 260,413.5C 222.073,402.684 184.073,392.017 146,381.5C 145.055,381.095 144.388,380.428 144,379.5C 141.654,350.842 139.488,322.175 137.5,293.5C 155.833,293.5 174.167,293.5 192.5,293.5C 193.503,308.534 194.837,323.534 196.5,338.5C 217.533,343.675 238.533,349.008 259.5,354.5C 280.614,349.471 301.614,343.971 322.5,338C 325.167,313.667 327.833,289.333 330.5,265C 265.168,264.5 199.834,264.333 134.5,264.5C 129.26,207.865 124.26,151.198 119.5,94.5 Z"/></g>
</svg>
