<?xml version="1.0" encoding="UTF-8"?>
<!DOCTYPE svg PUBLIC "-//W3C//DTD SVG 1.1//EN" "http://www.w3.org/Graphics/SVG/1.1/DTD/svg11.dtd">
<svg xmlns="http://www.w3.org/2000/svg" version="1.1" width="512px" height="512px" style="shape-rendering:geometricPrecision; text-rendering:geometricPrecision; image-rendering:optimizeQuality; fill-rule:evenodd; clip-rule:evenodd" xmlns:xlink="http://www.w3.org/1999/xlink">
<g><path style="opacity:0.996" fill="#000000" d="M -0.5,-0.5 C 170.167,-0.5 340.833,-0.5 511.5,-0.5C 511.5,170.167 511.5,340.833 511.5,511.5C 340.833,511.5 170.167,511.5 -0.5,511.5C -0.5,340.833 -0.5,170.167 -0.5,-0.5 Z M 381.5,231.5 C 414.28,228.887 438.947,241.554 455.5,269.5C 443.582,277.042 431.748,284.709 420,292.5C 408.969,273.712 393.469,268.545 373.5,277C 361.95,288.881 361.95,300.881 373.5,313C 378.167,315.667 382.833,318.333 387.5,321C 407.779,328.306 426.779,337.972 444.5,350C 465.982,367.168 473.815,389.335 468,416.5C 462.577,439.518 448.743,455.018 426.5,463C 394.708,473.394 364.042,470.727 334.5,455C 324.377,448.544 315.877,440.377 309,430.5C 307.111,427.888 305.611,425.055 304.5,422C 316.471,414.009 328.805,406.509 341.5,399.5C 359.238,427.024 383.238,434.524 413.5,422C 421.515,415.288 424.348,406.788 422,396.5C 421.108,393.048 419.442,390.048 417,387.5C 412.92,384.543 408.753,381.71 404.5,379C 387.594,371.881 370.927,364.214 354.5,356C 322.072,335.728 311.572,307.228 323,270.5C 331.893,251.131 346.726,238.965 367.5,234C 372.336,233.32 377.003,232.486 381.5,231.5 Z M 230.5,235.5 C 246.167,235.5 261.833,235.5 277.5,235.5C 277.667,293.168 277.5,350.834 277,408.5C 272.371,450.123 249.038,471.123 207,471.5C 179.411,471.885 157.411,461.218 141,439.5C 138.777,436.221 136.943,432.721 135.5,429C 147.466,420.678 159.799,412.845 172.5,405.5C 176.65,412.268 181.65,418.435 187.5,424C 189.888,425.861 192.554,427.194 195.5,428C 216.455,432.637 227.955,424.471 230,403.5C 230.5,347.501 230.667,291.501 230.5,235.5 Z"/></g>
</svg>
