<?xml version="1.0" encoding="UTF-8"?>
<!DOCTYPE svg PUBLIC "-//W3C//DTD SVG 1.1//EN" "http://www.w3.org/Graphics/SVG/1.1/DTD/svg11.dtd">
<svg xmlns="http://www.w3.org/2000/svg" version="1.1" width="500px" height="500px" style="shape-rendering:geometricPrecision; text-rendering:geometricPrecision; image-rendering:optimizeQuality; fill-rule:evenodd; clip-rule:evenodd" xmlns:xlink="http://www.w3.org/1999/xlink">
<g><path style="opacity:0.995" fill="#fdfdfd" d="M 228.5,-0.5 C 240.167,-0.5 251.833,-0.5 263.5,-0.5C 270.676,0.648528 278.009,1.64853 285.5,2.5C 378.508,19.1371 444.175,70.4705 482.5,156.5C 486.489,168.472 490.156,180.472 493.5,192.5C 494.434,193.568 494.768,194.901 494.5,196.5C 494.549,200.078 495.215,203.411 496.5,206.5C 497.461,208.265 497.795,210.265 497.5,212.5C 497.45,218.389 498.116,224.056 499.5,229.5C 499.5,240.833 499.5,252.167 499.5,263.5C 498.435,270.317 497.768,277.317 497.5,284.5C 493.429,306.724 487.096,328.391 478.5,349.5C 444.634,423.524 388.301,471.024 309.5,492C 295.509,495.368 281.509,497.868 267.5,499.5C 251.833,499.5 236.167,499.5 220.5,499.5C 214.107,498.49 207.774,497.156 201.5,495.5C 198.781,494.087 195.781,493.42 192.5,493.5C 176.377,488.784 160.377,483.451 144.5,477.5C 85.3461,448.346 43.0128,403.346 17.5,342.5C 9.77918,321.942 4.11251,300.942 0.5,279.5C 0.67158,278.508 0.338246,277.842 -0.5,277.5C -0.5,262.167 -0.5,246.833 -0.5,231.5C 1.05393,219.956 2.7206,208.289 4.5,196.5C 26.0035,111.143 77.3368,50.9767 158.5,16C 170.899,11.9903 183.232,8.15698 195.5,4.5C 201.18,3.94214 206.847,3.27547 212.5,2.5C 218.082,2.14334 223.415,1.14334 228.5,-0.5 Z"/></g>
<g><path style="opacity:0.243" fill="#636363" d="M 263.5,-0.5 C 269.5,-0.5 275.5,-0.5 281.5,-0.5C 281.5,0.166667 281.833,0.5 282.5,0.5C 283.5,1.16667 284.5,1.83333 285.5,2.5C 278.009,1.64853 270.676,0.648528 263.5,-0.5 Z"/></g>
<g><path style="opacity:0.294" fill="#5a5a5a" d="M 217.5,-0.5 C 221.167,-0.5 224.833,-0.5 228.5,-0.5C 223.415,1.14334 218.082,2.14334 212.5,2.5C 213.5,1.83333 214.5,1.16667 215.5,0.5C 216.492,0.67158 217.158,0.338246 217.5,-0.5 Z"/></g>
<g><path style="opacity:0.071" fill="#0f0f0f" d="M 215.5,0.5 C 214.5,1.16667 213.5,1.83333 212.5,2.5C 206.847,3.27547 201.18,3.94214 195.5,4.5C 201.96,2.75261 208.627,1.41928 215.5,0.5 Z"/></g>
<g><path style="opacity:0.021" fill="#1a1a1a" d="M 282.5,0.5 C 366.493,13.055 429.326,56.055 471,129.5C 475.719,138.168 479.552,147.168 482.5,156.5C 444.175,70.4705 378.508,19.1371 285.5,2.5C 284.5,1.83333 283.5,1.16667 282.5,0.5 Z"/></g>
<g><path style="opacity:0.029" fill="#151515" d="M 195.5,4.5 C 183.232,8.15698 170.899,11.9903 158.5,16C 77.3368,50.9767 26.0035,111.143 4.5,196.5C 20.8053,122.385 61.8053,66.5513 127.5,29C 148.866,17.1469 171.533,8.98025 195.5,4.5 Z"/></g>
<g><path style="opacity:1" fill="#383838" d="M 148.5,72.5 C 136.12,71.8542 124.12,72.5209 112.5,74.5C 111.596,73.791 111.263,72.791 111.5,71.5C 124.011,71.1714 136.345,71.5048 148.5,72.5 Z"/></g>
<g><path style="opacity:1" fill="#363636" d="M 387.5,74.5 C 382.04,73.1709 376.207,72.5042 370,72.5C 363.756,72.5197 357.589,72.8531 351.5,73.5C 363.455,71.5203 375.788,70.8536 388.5,71.5C 388.737,72.791 388.404,73.791 387.5,74.5 Z"/></g>
<g><path style="opacity:1" fill="#030303" d="M 148.5,72.5 C 156.665,91.7433 164.999,111.077 173.5,130.5C 190.554,120.75 208.887,114.75 228.5,112.5C 237.485,111.834 246.485,111.501 255.5,111.5C 259.881,111.372 264.215,111.705 268.5,112.5C 271.219,113.913 274.219,114.58 277.5,114.5C 294.631,117.485 310.797,123.152 326,131.5C 334.507,112.09 343.007,92.7568 351.5,73.5C 357.589,72.8531 363.756,72.5197 370,72.5C 376.207,72.5042 382.04,73.1709 387.5,74.5C 372.345,112.131 356.679,149.465 340.5,186.5C 321.176,165.505 297.509,152.338 269.5,147C 265.848,146.501 262.182,146.335 258.5,146.5C 250.344,145.343 242.01,145.177 233.5,146C 230.543,146.279 227.877,147.113 225.5,148.5C 212.291,149.959 199.957,154.126 188.5,161C 187.446,162.388 187.28,163.888 188,165.5C 208.664,214.822 229.33,264.155 250,313.5C 255.471,301.572 260.638,289.572 265.5,277.5C 267.834,275.824 268.834,273.491 268.5,270.5C 280.468,242.394 292.301,214.061 304,185.5C 304.779,184.272 305.779,183.272 307,182.5C 316.953,188.953 325.453,196.953 332.5,206.5C 325.184,223.452 318.184,240.452 311.5,257.5C 310.326,258.514 309.66,259.847 309.5,261.5C 308.596,262.209 308.263,263.209 308.5,264.5C 341.167,264.5 373.833,264.5 406.5,264.5C 406.518,272.851 406.185,281.184 405.5,289.5C 404.686,295.533 403.686,301.533 402.5,307.5C 401.076,309.515 400.41,311.848 400.5,314.5C 381.858,371.97 343.191,408.47 284.5,424C 276.186,425.363 267.853,426.53 259.5,427.5C 249.753,403.013 239.753,378.68 229.5,354.5C 228.925,351.088 227.592,348.088 225.5,345.5C 203.968,292.761 182.134,240.094 160,187.5C 159.333,186.833 158.667,186.167 158,185.5C 127.197,219.801 117.864,259.468 130,304.5C 142.321,344.653 168.155,371.987 207.5,386.5C 210.505,388.277 213.838,389.277 217.5,389.5C 222.619,389.945 226.119,392.612 228,397.5C 231.154,407.467 234.987,417.134 239.5,426.5C 237.604,427.466 235.604,427.799 233.5,427.5C 228.145,425.42 222.478,424.42 216.5,424.5C 172.681,414.179 138.515,390.179 114,352.5C 109.47,343.439 104.97,334.439 100.5,325.5C 99.6096,319.834 97.943,314.5 95.5,309.5C 94.0022,300.84 92.5022,292.173 91,283.5C 90.3103,272.148 90.477,260.815 91.5,249.5C 92.6572,246.727 93.3239,243.727 93.5,240.5C 99.9336,205.631 116.267,176.298 142.5,152.5C 142.833,151.5 143.167,150.5 143.5,149.5C 133.425,124.355 123.091,99.3547 112.5,74.5C 124.12,72.5209 136.12,71.8542 148.5,72.5 Z"/></g>
<g><path style="opacity:1" fill="#b1b1b1" d="M 255.5,111.5 C 246.485,111.501 237.485,111.834 228.5,112.5C 237.451,110.45 246.451,110.116 255.5,111.5 Z"/></g>
<g><path style="opacity:1" fill="#636363" d="M 268.5,112.5 C 271.781,112.42 274.781,113.087 277.5,114.5C 274.219,114.58 271.219,113.913 268.5,112.5 Z"/></g>
<g><path style="opacity:1" fill="#7d7d7d" d="M 258.5,146.5 C 247.426,146.17 236.426,146.837 225.5,148.5C 227.877,147.113 230.543,146.279 233.5,146C 242.01,145.177 250.344,145.343 258.5,146.5 Z"/></g>
<g><path style="opacity:0.012" fill="#1e1e1e" d="M 482.5,156.5 C 488.006,167.838 491.673,179.838 493.5,192.5C 490.156,180.472 486.489,168.472 482.5,156.5 Z"/></g>
<g><path style="opacity:0.02" fill="#0d0d0d" d="M 494.5,196.5 C 496.011,199.544 496.678,202.878 496.5,206.5C 495.215,203.411 494.549,200.078 494.5,196.5 Z"/></g>
<g><path style="opacity:0.017" fill="#101010" d="M 4.5,196.5 C 2.7206,208.289 1.05393,219.956 -0.5,231.5C -0.5,227.5 -0.5,223.5 -0.5,219.5C 0.525031,211.709 2.1917,204.043 4.5,196.5 Z"/></g>
<g><path style="opacity:0.03" fill="#090909" d="M 497.5,212.5 C 498.167,215.167 498.833,217.833 499.5,220.5C 499.5,223.5 499.5,226.5 499.5,229.5C 498.116,224.056 497.45,218.389 497.5,212.5 Z"/></g>
<g><path style="opacity:1" fill="#959595" d="M 93.5,240.5 C 93.3239,243.727 92.6572,246.727 91.5,249.5C 91.2153,246.171 91.8819,243.171 93.5,240.5 Z"/></g>
<g><path style="opacity:1" fill="#cecece" d="M 311.5,257.5 C 311.714,259.144 311.38,260.644 310.5,262C 342.833,262.333 375.167,262.667 407.5,263C 408.641,268.75 408.807,274.584 408,280.5C 407.943,283.851 407.109,286.851 405.5,289.5C 406.185,281.184 406.518,272.851 406.5,264.5C 373.987,264.165 341.654,263.165 309.5,261.5C 309.66,259.847 310.326,258.514 311.5,257.5 Z"/></g>
<g><path style="opacity:1" fill="#4f4f4f" d="M 309.5,261.5 C 341.654,263.165 373.987,264.165 406.5,264.5C 373.833,264.5 341.167,264.5 308.5,264.5C 308.263,263.209 308.596,262.209 309.5,261.5 Z"/></g>
<g><path style="opacity:0.018" fill="#212121" d="M 499.5,263.5 C 499.5,268.167 499.5,272.833 499.5,277.5C 498.833,279.833 498.167,282.167 497.5,284.5C 497.768,277.317 498.435,270.317 499.5,263.5 Z"/></g>
<g><path style="opacity:1" fill="#535353" d="M 268.5,270.5 C 268.834,273.491 267.834,275.824 265.5,277.5C 265.935,274.843 266.935,272.509 268.5,270.5 Z"/></g>
<g><path style="opacity:1" fill="#4d4d4d" d="M 294.5,298.5 C 319.328,297.502 344.328,297.169 369.5,297.5C 369.737,298.791 369.404,299.791 368.5,300.5C 344.189,298.51 319.523,297.843 294.5,298.5 Z"/></g>
<g><path style="opacity:1" fill="#fcfcfc" d="M 294.5,298.5 C 319.523,297.843 344.189,298.51 368.5,300.5C 354.434,348.066 323.434,378.233 275.5,391C 271.582,392.156 267.582,392.656 263.5,392.5C 260.615,392.806 257.948,392.473 255.5,391.5C 267.907,360.287 280.907,329.287 294.5,298.5 Z"/></g>
<g><path style="opacity:0.043" fill="#2c2c2c" d="M 497.5,284.5 C 495.245,306.862 489.578,328.195 480.5,348.5C 479.833,348.833 479.167,349.167 478.5,349.5C 487.096,328.391 493.429,306.724 497.5,284.5 Z"/></g>
<g><path style="opacity:0.051" fill="#2a2a2a" d="M 0.5,279.5 C 4.11251,300.942 9.77918,321.942 17.5,342.5C 16.8333,342.167 16.1667,341.833 15.5,341.5C 7.67787,321.544 2.67787,300.877 0.5,279.5 Z"/></g>
<g><path style="opacity:1" fill="#858585" d="M 402.5,307.5 C 402.59,310.152 401.924,312.485 400.5,314.5C 400.41,311.848 401.076,309.515 402.5,307.5 Z"/></g>
<g><path style="opacity:1" fill="#999999" d="M 95.5,309.5 C 97.943,314.5 99.6096,319.834 100.5,325.5C 98.057,320.5 96.3904,315.166 95.5,309.5 Z"/></g>
<g><path style="opacity:1" fill="#afafaf" d="M 225.5,345.5 C 227.592,348.088 228.925,351.088 229.5,354.5C 226.835,352.165 225.502,349.165 225.5,345.5 Z"/></g>
<g><path style="opacity:1" fill="#999999" d="M 207.5,386.5 C 211.162,386.723 214.495,387.723 217.5,389.5C 213.838,389.277 210.505,388.277 207.5,386.5 Z"/></g>
<g><path style="opacity:1" fill="#6d6d6d" d="M 255.5,391.5 C 257.948,392.473 260.615,392.806 263.5,392.5C 260.645,393.803 257.645,393.803 254.5,392.5C 254.624,391.893 254.957,391.56 255.5,391.5 Z"/></g>
<g><path style="opacity:0.02" fill="#151515" d="M 15.5,341.5 C 16.1667,341.833 16.8333,342.167 17.5,342.5C 43.0128,403.346 85.3461,448.346 144.5,477.5C 87.6067,451.774 46.1067,410.44 20,353.5C 18.2087,349.589 16.7087,345.589 15.5,341.5 Z"/></g>
<g><path style="opacity:1" fill="#4f4f4f" d="M 216.5,424.5 C 222.478,424.42 228.145,425.42 233.5,427.5C 227.511,427.633 221.844,426.633 216.5,424.5 Z"/></g>
<g><path style="opacity:0.02" fill="#191919" d="M 480.5,348.5 C 448.606,420.559 394.939,468.059 319.5,491C 306.168,494.505 292.835,497.338 279.5,499.5C 275.5,499.5 271.5,499.5 267.5,499.5C 281.509,497.868 295.509,495.368 309.5,492C 388.301,471.024 444.634,423.524 478.5,349.5C 479.167,349.167 479.833,348.833 480.5,348.5 Z"/></g>
<g><path style="opacity:0.022" fill="#272727" d="M 144.5,477.5 C 160.377,483.451 176.377,488.784 192.5,493.5C 180.881,491.462 169.548,488.295 158.5,484C 153.433,482.488 148.767,480.321 144.5,477.5 Z"/></g>
<g><path style="opacity:0.059" fill="#1c1c1c" d="M 192.5,493.5 C 195.781,493.42 198.781,494.087 201.5,495.5C 198.219,495.58 195.219,494.913 192.5,493.5 Z"/></g>
</svg>
