<?xml version="1.0" encoding="UTF-8"?>
<!DOCTYPE svg PUBLIC "-//W3C//DTD SVG 1.1//EN" "http://www.w3.org/Graphics/SVG/1.1/DTD/svg11.dtd">
<svg xmlns="http://www.w3.org/2000/svg" version="1.1" width="512px" height="512px" style="shape-rendering:geometricPrecision; text-rendering:geometricPrecision; image-rendering:optimizeQuality; fill-rule:evenodd; clip-rule:evenodd" xmlns:xlink="http://www.w3.org/1999/xlink">
<g><path style="opacity:0.93" fill="#000000" d="M 22.5,-0.5 C 28.8333,-0.5 35.1667,-0.5 41.5,-0.5C 67.0654,7.28618 91.3987,17.7862 114.5,31C 118.34,31.4057 122.173,31.239 126,30.5C 137.352,32.0336 148.185,35.2002 158.5,40C 190.338,60.4984 219.172,84.6651 245,112.5C 274.725,150.275 301.725,189.942 326,231.5C 330.953,243.701 336.286,255.701 342,267.5C 351.558,281.561 363.058,293.894 376.5,304.5C 401.505,322.356 427.838,337.856 455.5,351C 474.722,361.227 491.222,374.727 505,391.5C 507.285,396.227 509.452,400.893 511.5,405.5C 511.5,409.167 511.5,412.833 511.5,416.5C 506.489,416.334 501.489,416.501 496.5,417C 476.123,419.262 456.123,423.262 436.5,429C 432.589,430.56 428.922,432.56 425.5,435C 434.02,444.021 443.02,452.521 452.5,460.5C 466.665,470.839 480.665,481.339 494.5,492C 500.362,497.033 506.029,502.199 511.5,507.5C 511.5,508.833 511.5,510.167 511.5,511.5C 509.833,511.5 508.167,511.5 506.5,511.5C 482.21,501.188 458.876,489.021 436.5,475C 422.52,464.3 409.186,452.967 396.5,441C 389.667,434.167 382.833,427.333 376,420.5C 375.219,419.056 375.386,417.723 376.5,416.5C 393.887,408.4 412.22,403.233 431.5,401C 441.522,400.293 451.522,399.46 461.5,398.5C 461.414,396.323 460.747,394.323 459.5,392.5C 456.632,389.134 453.299,386.3 449.5,384C 425.11,372.483 400.776,360.816 376.5,349C 358.593,339.428 343.426,326.595 331,310.5C 327.927,305.362 324.593,300.362 321,295.5C 310.346,274.904 299.679,254.238 289,233.5C 269.02,204.514 249.02,175.514 229,146.5C 210.167,125 190,104.833 168.5,86C 159.143,78.6546 149.143,72.3213 138.5,67C 134.709,65.982 130.875,65.1487 127,64.5C 118.509,65.0067 110.342,66.5067 102.5,69C 89.6421,59.4104 76.6421,50.0771 63.5,41C 58.1382,37.6524 52.4715,34.8191 46.5,32.5C 38.6068,34.2265 33.9401,39.0598 32.5,47C 36.4983,56.1707 41.165,65.0041 46.5,73.5C 57.4203,89.6747 68.587,105.675 80,121.5C 82.6551,138.115 86.3218,154.449 91,170.5C 93.4548,174.531 95.1214,178.864 96,183.5C 103.151,196.467 110.818,209.133 119,221.5C 119.49,222.793 119.657,224.127 119.5,225.5C 114.873,223.633 110.706,224.299 107,227.5C 101.734,239.601 98.7344,252.267 98,265.5C 96.7339,278.156 96.0673,290.823 96,303.5C 100.785,320.549 108.951,335.716 120.5,349C 121.5,349.667 122.5,349.667 123.5,349C 124.714,346.649 125.548,344.149 126,341.5C 125.491,326.363 128.491,312.03 135,298.5C 139.706,292.069 145.872,288.736 153.5,288.5C 174.218,330.839 196.718,372.172 221,412.5C 228.801,423.963 236.968,435.129 245.5,446C 244.167,446.667 242.833,446.667 241.5,446C 208.132,415.68 179.632,381.513 156,343.5C 153.036,357.932 146.536,370.432 136.5,381C 128.935,385.171 121.268,385.171 113.5,381C 104.121,375.554 96.288,368.388 90,359.5C 73.4515,337.879 64.2849,313.379 62.5,286C 63.3352,261.16 68.0019,237.16 76.5,214C 72.2818,207.731 68.4485,201.231 65,194.5C 55.9538,175.956 50.6204,156.289 49,135.5C 31.4586,104.101 14.9586,72.1008 -0.5,39.5C -0.5,33.5 -0.5,27.5 -0.5,21.5C 4.54652,11.3873 12.2132,4.054 22.5,-0.5 Z"/></g>
<g><path style="opacity:0.876" fill="#000000" d="M 139.5,94.5 C 153.644,94.4767 160.478,101.477 160,115.5C 154.406,128.367 145.239,131.534 132.5,125C 125.618,117.443 124.784,109.276 130,100.5C 132.843,97.8373 136.009,95.8373 139.5,94.5 Z"/></g>
</svg>
