<?xml version="1.0" encoding="UTF-8"?>
<!DOCTYPE svg PUBLIC "-//W3C//DTD SVG 1.1//EN" "http://www.w3.org/Graphics/SVG/1.1/DTD/svg11.dtd">
<svg xmlns="http://www.w3.org/2000/svg" version="1.1" width="500px" height="500px" style="shape-rendering:geometricPrecision; text-rendering:geometricPrecision; image-rendering:optimizeQuality; fill-rule:evenodd; clip-rule:evenodd" xmlns:xlink="http://www.w3.org/1999/xlink">
<g><path style="opacity:0.997" fill="#0e0e0e" d="M 289.5,0.5 C 292.167,0.5 294.833,0.5 297.5,0.5C 301.825,1.94585 306.158,3.61252 310.5,5.5C 310.973,6.90632 311.973,7.57298 313.5,7.5C 314.757,10.4274 316.757,12.7607 319.5,14.5C 320.674,15.5137 321.34,16.847 321.5,18.5C 321.599,21.2372 321.265,23.9039 320.5,26.5C 319.833,27.8333 318.833,28.8333 317.5,29.5C 315.973,29.427 314.973,30.0937 314.5,31.5C 314.5,32.1667 314.167,32.5 313.5,32.5C 311.973,32.427 310.973,33.0937 310.5,34.5C 310.167,35.5 309.5,36.1667 308.5,36.5C 306.973,36.427 305.973,37.0937 305.5,38.5C 305.167,39.5 304.5,40.1667 303.5,40.5C 302.094,40.9731 301.427,41.9731 301.5,43.5C 298.752,46.7315 296.752,50.3982 295.5,54.5C 293.883,58.5396 293.05,62.8729 293,67.5C 292.617,66.944 292.117,66.6107 291.5,66.5C 290.262,64.7857 289.595,62.7857 289.5,60.5C 289.392,55.1301 289.725,49.7968 290.5,44.5C 290.557,43.391 290.89,42.391 291.5,41.5C 292.906,41.0269 293.573,40.0269 293.5,38.5C 293.604,36.2972 294.27,34.2972 295.5,32.5C 296.163,30.3587 296.497,28.0254 296.5,25.5C 296.685,21.8589 296.019,18.5256 294.5,15.5C 293.263,14.0351 292.263,12.3684 291.5,10.5C 291.573,8.97306 290.906,7.97306 289.5,7.5C 288.167,6.83333 287.167,5.83333 286.5,4.5C 286.196,3.85013 285.863,3.18346 285.5,2.5C 286.949,1.82811 288.282,1.16145 289.5,0.5 Z"/></g>
<g><path style="opacity:0.451" fill="#9c9c9c" d="M 289.5,0.5 C 288.282,1.16145 286.949,1.82811 285.5,2.5C 285.863,3.18346 286.196,3.85013 286.5,4.5C 284.314,4.48936 283.481,3.48936 284,1.5C 285.699,0.593906 287.533,0.260572 289.5,0.5 Z"/></g>
<g><path style="opacity:0.282" fill="#a7a7a7" d="M 297.5,0.5 C 302.602,0.418674 306.935,2.08534 310.5,5.5C 306.158,3.61252 301.825,1.94585 297.5,0.5 Z"/></g>
<g><path style="opacity:0.024" fill="#cdcdcd" d="M 310.5,5.5 C 312.027,5.42702 313.027,6.09368 313.5,7.5C 311.973,7.57298 310.973,6.90632 310.5,5.5 Z"/></g>
<g><path style="opacity:0.059" fill="#c8c8c8" d="M 289.5,7.5 C 290.906,7.97306 291.573,8.97306 291.5,10.5C 290.094,10.0269 289.427,9.02694 289.5,7.5 Z"/></g>
<g><path style="opacity:0.588" fill="#8c8c8c" d="M 313.5,7.5 C 316.243,9.23931 318.243,11.5726 319.5,14.5C 316.757,12.7607 314.757,10.4274 313.5,7.5 Z"/></g>
<g><path style="opacity:0.999" fill="#020202" d="M 335.5,8.5 C 338.406,9.78664 341.406,10.7866 344.5,11.5C 345.492,11.3284 346.158,11.6618 346.5,12.5C 346.973,13.9063 347.973,14.573 349.5,14.5C 350.492,14.3284 351.158,14.6618 351.5,15.5C 351.973,16.9063 352.973,17.573 354.5,17.5C 355.733,19.7964 357.733,21.1298 360.5,21.5C 361.035,23.4456 362.368,24.4456 364.5,24.5C 365.035,26.4456 366.368,27.4456 368.5,27.5C 369.5,27.8333 370.167,28.5 370.5,29.5C 371.08,31.7488 372.413,33.4154 374.5,34.5C 378.449,37.707 381.449,41.707 383.5,46.5C 383.427,48.0269 384.094,49.0269 385.5,49.5C 387.008,51.1815 388.008,53.1815 388.5,55.5C 388.166,58.491 389.166,60.8243 391.5,62.5C 391.41,65.1522 392.076,67.4855 393.5,69.5C 393.294,72.4951 393.96,75.1617 395.5,77.5C 395.5,78.5 395.5,79.5 395.5,80.5C 396.487,95.9242 394.487,110.924 389.5,125.5C 379.183,149.818 361.517,166.151 336.5,174.5C 333.848,174.41 331.515,175.076 329.5,176.5C 328.432,177.434 327.099,177.768 325.5,177.5C 321.625,177.085 317.958,177.585 314.5,179C 315.745,179.791 317.078,180.291 318.5,180.5C 334.849,184.918 350.849,184.251 366.5,178.5C 374.097,175.7 381.431,172.367 388.5,168.5C 390.027,168.573 391.027,167.906 391.5,166.5C 393.027,166.573 394.027,165.906 394.5,164.5C 398.436,162.234 401.769,159.234 404.5,155.5C 406.914,154.089 408.581,152.089 409.5,149.5C 411.587,148.415 412.92,146.749 413.5,144.5C 413.328,143.508 413.662,142.842 414.5,142.5C 415.906,142.027 416.573,141.027 416.5,139.5C 418.969,138.393 419.969,136.393 419.5,133.5C 419.66,131.847 420.326,130.514 421.5,129.5C 423.834,127.824 424.834,125.491 424.5,122.5C 424.5,122.167 424.5,121.833 424.5,121.5C 426.568,118.237 427.568,114.57 427.5,110.5C 427.5,109.833 427.5,109.167 427.5,108.5C 428.264,106.26 429.098,103.927 430,101.5C 432.037,103.706 434.203,105.706 436.5,107.5C 437.419,110.089 439.086,112.089 441.5,113.5C 443.262,114.262 444.262,115.596 444.5,117.5C 444.738,119.404 445.738,120.738 447.5,121.5C 449.522,123.531 451.189,125.865 452.5,128.5C 452.427,130.027 453.094,131.027 454.5,131.5C 458.251,135.995 461.251,140.995 463.5,146.5C 463.427,148.027 464.094,149.027 465.5,149.5C 467.341,151.849 468.674,154.515 469.5,157.5C 469.427,159.027 470.094,160.027 471.5,160.5C 486.421,190.189 495.755,221.522 499.5,254.5C 499.5,267.167 499.5,279.833 499.5,292.5C 497.22,316.283 490.887,338.95 480.5,360.5C 478.375,363.088 477.042,366.088 476.5,369.5C 476.672,370.492 476.338,371.158 475.5,371.5C 473.076,374.008 471.41,377.008 470.5,380.5C 469,384.173 467,387.506 464.5,390.5C 463.094,390.973 462.427,391.973 462.5,393.5C 461.094,393.973 460.427,394.973 460.5,396.5C 460.5,397.167 460.167,397.5 459.5,397.5C 458.833,387.167 458.167,376.833 457.5,366.5C 456.5,358.504 455.5,350.504 454.5,342.5C 454.657,341.127 454.49,339.793 454,338.5C 452.531,341.963 451.697,345.63 451.5,349.5C 449.006,364.316 444.339,378.316 437.5,391.5C 435.707,393.426 434.707,395.759 434.5,398.5C 432.076,401.008 430.41,404.008 429.5,407.5C 428.921,410.331 427.588,412.664 425.5,414.5C 424.094,414.973 423.427,415.973 423.5,417.5C 422.551,419.777 421.218,421.777 419.5,423.5C 418.094,423.973 417.427,424.973 417.5,426.5C 416.094,426.973 415.427,427.973 415.5,429.5C 415.167,430.5 414.5,431.167 413.5,431.5C 412.094,431.973 411.427,432.973 411.5,434.5C 411.167,435.5 410.5,436.167 409.5,436.5C 407.413,437.585 406.08,439.251 405.5,441.5C 404.5,443.167 403.167,444.5 401.5,445.5C 397.5,448.833 393.833,452.5 390.5,456.5C 389.5,458.167 388.167,459.5 386.5,460.5C 385.127,460.343 383.793,460.51 382.5,461C 383.598,461.77 383.598,462.603 382.5,463.5C 382.167,464.5 381.5,465.167 380.5,465.5C 378.973,465.427 377.973,466.094 377.5,467.5C 377.5,468.167 377.167,468.5 376.5,468.5C 374.708,468.634 373.042,468.301 371.5,467.5C 371.5,466.833 371.5,466.167 371.5,465.5C 373.25,464.341 374.25,462.674 374.5,460.5C 374.328,459.508 374.662,458.842 375.5,458.5C 377.408,457.514 378.408,455.848 378.5,453.5C 379.326,450.515 380.659,447.849 382.5,445.5C 385.126,443.236 386.459,440.236 386.5,436.5C 388.834,434.824 389.834,432.491 389.5,429.5C 390.966,428.653 391.8,427.32 392,425.5C 393.642,420.598 394.809,415.598 395.5,410.5C 395.232,408.901 395.566,407.568 396.5,406.5C 397.971,403.257 398.971,399.757 399.5,396C 399.167,395.5 398.833,395 398.5,394.5C 397.638,395.766 396.971,397.099 396.5,398.5C 395.326,399.514 394.66,400.847 394.5,402.5C 393.094,402.973 392.427,403.973 392.5,405.5C 391.094,405.973 390.427,406.973 390.5,408.5C 389.189,411.135 387.522,413.469 385.5,415.5C 384.094,415.973 383.427,416.973 383.5,418.5C 383.167,419.5 382.5,420.167 381.5,420.5C 380.094,420.973 379.427,421.973 379.5,423.5C 379.5,424.167 379.167,424.5 378.5,424.5C 376.413,425.585 375.08,427.251 374.5,429.5C 373.833,430.833 372.833,431.833 371.5,432.5C 369.5,433.833 367.833,435.5 366.5,437.5C 364.167,439.167 362.167,441.167 360.5,443.5C 359.167,445.5 357.5,447.167 355.5,448.5C 353.251,449.08 351.585,450.413 350.5,452.5C 350.5,453.167 350.167,453.5 349.5,453.5C 347.251,454.08 345.585,455.413 344.5,457.5C 342.973,457.427 341.973,458.094 341.5,459.5C 341.5,460.167 341.167,460.5 340.5,460.5C 338.973,460.427 337.973,461.094 337.5,462.5C 337.158,463.338 336.492,463.672 335.5,463.5C 334.127,463.343 332.793,463.51 331.5,464C 332.598,464.77 332.598,465.603 331.5,466.5C 330.035,467.737 328.368,468.737 326.5,469.5C 324.973,469.427 323.973,470.094 323.5,471.5C 322.486,472.674 321.153,473.34 319.5,473.5C 308.507,478.711 297.507,483.711 286.5,488.5C 279.183,489.742 272.183,491.742 265.5,494.5C 256.51,495.61 247.51,496.61 238.5,497.5C 238.062,497.565 237.728,497.399 237.5,497C 239.119,496.764 240.119,495.931 240.5,494.5C 240.833,494.5 241.167,494.5 241.5,494.5C 243.027,494.573 244.027,493.906 244.5,492.5C 246.181,490.992 248.181,489.992 250.5,489.5C 252.027,489.573 253.027,488.906 253.5,487.5C 253.842,486.662 254.508,486.328 255.5,486.5C 257.027,486.573 258.027,485.906 258.5,484.5C 260.027,484.573 261.027,483.906 261.5,482.5C 263.404,482.262 264.738,481.262 265.5,479.5C 272.364,475.973 278.364,471.306 283.5,465.5C 293.207,458.127 301.54,449.46 308.5,439.5C 310.262,438.738 311.262,437.404 311.5,435.5C 312.289,435.217 312.956,434.717 313.5,434C 312.251,433.26 311.251,433.427 310.5,434.5C 308.447,434.402 306.78,435.069 305.5,436.5C 299.468,437.731 293.801,439.731 288.5,442.5C 277.243,445.085 265.909,447.418 254.5,449.5C 253.274,449.48 252.274,449.147 251.5,448.5C 253.404,448.262 254.738,447.262 255.5,445.5C 255.842,444.662 256.508,444.328 257.5,444.5C 260.427,443.243 262.761,441.243 264.5,438.5C 268.402,436.107 271.902,433.107 275,429.5C 278.745,424.602 282.245,419.602 285.5,414.5C 286.906,414.027 287.573,413.027 287.5,411.5C 288.906,411.027 289.573,410.027 289.5,408.5C 289.328,407.508 289.662,406.842 290.5,406.5C 293.415,404.349 295.082,401.349 295.5,397.5C 306.054,373.064 308.887,347.731 304,321.5C 303.685,323.586 303.185,325.586 302.5,327.5C 301.307,327.97 300.64,328.97 300.5,330.5C 300.003,332.818 299.67,335.152 299.5,337.5C 295.62,352.599 288.62,365.933 278.5,377.5C 277.094,377.973 276.427,378.973 276.5,380.5C 275.5,382.167 274.167,383.5 272.5,384.5C 270.167,386.167 268.167,388.167 266.5,390.5C 265.167,392.5 263.5,394.167 261.5,395.5C 259.596,395.738 258.262,396.738 257.5,398.5C 255.596,398.738 254.262,399.738 253.5,401.5C 251.973,401.427 250.973,402.094 250.5,403.5C 248.973,403.427 247.973,404.094 247.5,405.5C 247.158,406.338 246.492,406.672 245.5,406.5C 243.326,406.75 241.659,407.75 240.5,409.5C 237.485,411.674 234.151,413.341 230.5,414.5C 228.447,414.402 226.78,415.069 225.5,416.5C 221.838,416.723 218.505,417.723 215.5,419.5C 213.143,419.337 210.81,419.503 208.5,420C 207.944,420.383 207.611,420.883 207.5,421.5C 190.081,425.68 172.748,425.347 155.5,420.5C 153.898,418.926 151.898,418.259 149.5,418.5C 145.498,416.39 141.165,415.057 136.5,414.5C 134.847,414.34 133.514,413.674 132.5,412.5C 131.486,411.326 130.153,410.66 128.5,410.5C 125.577,409.705 122.91,408.372 120.5,406.5C 121.005,405.081 122.005,404.415 123.5,404.5C 126.152,404.59 128.485,403.924 130.5,402.5C 133.247,402.813 135.914,402.48 138.5,401.5C 137.395,399.389 135.729,398.055 133.5,397.5C 128.434,392.926 124.267,387.593 121,381.5C 118.258,376.109 116.425,370.442 115.5,364.5C 115.104,355.066 115.771,345.733 117.5,336.5C 118.723,332.951 120.723,329.951 123.5,327.5C 126.089,326.581 128.089,324.914 129.5,322.5C 131.027,322.573 132.027,321.906 132.5,320.5C 133.391,319.89 134.391,319.557 135.5,319.5C 140.805,318.806 146.138,318.472 151.5,318.5C 151.833,318.5 152.167,318.5 152.5,318.5C 155.088,320.158 157.755,321.825 160.5,323.5C 161.117,323.611 161.617,323.944 162,324.5C 162.167,325.833 162.333,327.167 162.5,328.5C 160.721,334.227 159.388,340.06 158.5,346C 158.399,350.953 160.066,355.119 163.5,358.5C 163.5,360.5 164.5,361.5 166.5,361.5C 167.3,363.741 168.966,364.741 171.5,364.5C 177.445,367.543 183.778,369.209 190.5,369.5C 192.5,369.5 193.5,368.5 193.5,366.5C 194.906,366.027 195.573,365.027 195.5,363.5C 197.408,362.514 198.408,360.848 198.5,358.5C 200.969,357.393 201.969,355.393 201.5,352.5C 201.893,350.716 202.559,349.05 203.5,347.5C 205.655,345.383 206.655,342.716 206.5,339.5C 207.981,346.951 208.981,354.618 209.5,362.5C 210.855,361.812 211.855,360.812 212.5,359.5C 213.5,357.833 214.833,356.5 216.5,355.5C 218.587,354.415 219.92,352.749 220.5,350.5C 223.683,344.64 227.017,338.807 230.5,333C 237.952,332.728 244.286,335.228 249.5,340.5C 249.833,341.5 250.5,342.167 251.5,342.5C 252.458,342.953 253.292,343.619 254,344.5C 253.64,337.044 252.306,329.71 250,322.5C 246.764,313.699 243.264,305.032 239.5,296.5C 239.573,294.973 238.906,293.973 237.5,293.5C 236.662,293.158 236.328,292.492 236.5,291.5C 236.13,288.733 234.796,286.733 232.5,285.5C 230.179,282.204 227.846,278.871 225.5,275.5C 225.446,273.368 224.446,272.035 222.5,271.5C 221.5,271.167 220.833,270.5 220.5,269.5C 220.573,267.973 219.906,266.973 218.5,266.5C 217.5,266.167 216.833,265.5 216.5,264.5C 216.167,263.5 215.5,262.833 214.5,262.5C 212.167,260.833 210.167,258.833 208.5,256.5C 207.089,254.086 205.089,252.419 202.5,251.5C 201.415,249.413 199.749,248.08 197.5,247.5C 197.027,246.094 196.027,245.427 194.5,245.5C 193.738,243.738 192.404,242.738 190.5,242.5C 189.508,242.672 188.842,242.338 188.5,241.5C 188.027,240.094 187.027,239.427 185.5,239.5C 185.027,238.094 184.027,237.427 182.5,237.5C 177.516,235.674 172.849,233.341 168.5,230.5C 166.824,228.166 164.491,227.166 161.5,227.5C 161.167,227.5 160.833,227.5 160.5,227.5C 158.383,225.345 155.716,224.345 152.5,224.5C 150.485,223.076 148.152,222.41 145.5,222.5C 142.061,222.212 138.728,221.546 135.5,220.5C 132.155,218.783 128.489,218.116 124.5,218.5C 106.957,217.588 89.6238,218.922 72.5,222.5C 71.0937,222.973 70.427,223.973 70.5,225.5C 69.0937,225.973 68.427,226.973 68.5,228.5C 67.0937,228.973 66.427,229.973 66.5,231.5C 65.0937,231.973 64.427,232.973 64.5,234.5C 64.1667,235.5 63.5,236.167 62.5,236.5C 61.1667,237.167 60.1667,238.167 59.5,239.5C 58.5,240.833 57.5,240.833 56.5,239.5C 56.6663,232.492 56.4996,225.492 56,218.5C 54.9614,219.244 54.4614,220.244 54.5,221.5C 54.5,222.167 54.1667,222.5 53.5,222.5C 52.0937,222.973 51.427,223.973 51.5,225.5C 50.0937,225.973 49.427,226.973 49.5,228.5C 48.2921,231.044 46.2921,232.378 43.5,232.5C 42.5593,227.267 42.5593,222.1 43.5,217C 36.2457,214.548 30.2457,210.381 25.5,204.5C 25.573,202.973 24.9063,201.973 23.5,201.5C 22.3263,200.486 21.6596,199.153 21.5,197.5C 21.5979,195.447 20.9313,193.78 19.5,192.5C 19.5,192.167 19.5,191.833 19.5,191.5C 19.7148,189.821 19.0481,188.821 17.5,188.5C 16.5084,188.672 15.8417,188.338 15.5,187.5C 14.7377,185.738 13.4044,184.738 11.5,184.5C 10.4154,182.413 8.74876,181.08 6.5,180.5C 2.99109,178.335 0.657752,175.335 -0.5,171.5C -0.5,167.5 -0.5,163.5 -0.5,159.5C 0.757997,154.317 3.09133,149.651 6.5,145.5C 9.16667,143.5 11.5,141.167 13.5,138.5C 14.8021,136.178 16.8021,134.845 19.5,134.5C 23.4268,134.074 27.0935,133.074 30.5,131.5C 35.0737,130.191 39.7404,129.191 44.5,128.5C 47.716,128.655 50.3826,127.655 52.5,125.5C 56.0432,123.562 59.7099,121.895 63.5,120.5C 65.0269,120.573 66.0269,119.906 66.5,118.5C 68.0269,118.573 69.0269,117.906 69.5,116.5C 71.0269,116.573 72.0269,115.906 72.5,114.5C 74.7488,113.92 76.4154,112.587 77.5,110.5C 88.4895,97.3385 101.156,86.1718 115.5,77C 121.619,73.6058 127.952,70.7725 134.5,68.5C 139.054,67.6159 143.387,66.2825 147.5,64.5C 150.589,63.2154 153.922,62.5488 157.5,62.5C 161.489,62.8836 165.155,62.217 168.5,60.5C 172.099,59.6561 175.766,59.3227 179.5,59.5C 194.5,59.5 209.5,59.5 224.5,59.5C 227.713,59.19 230.713,59.5233 233.5,60.5C 239.268,62.128 245.268,63.128 251.5,63.5C 253.838,65.0395 256.505,65.7062 259.5,65.5C 259.833,65.5 260.167,65.5 260.5,65.5C 263.452,67.4098 266.786,68.4098 270.5,68.5C 272.786,68.595 274.786,69.2616 276.5,70.5C 277.78,71.9313 279.447,72.5979 281.5,72.5C 282.791,72.2627 283.791,72.596 284.5,73.5C 285.78,74.9313 287.447,75.5979 289.5,75.5C 290.791,75.2627 291.791,75.596 292.5,76.5C 294.09,78.821 296.423,79.821 299.5,79.5C 300.338,79.1583 300.672,78.4916 300.5,77.5C 299.217,70.1717 299.217,62.8384 300.5,55.5C 303.164,51.5082 305.83,47.5082 308.5,43.5C 310.749,42.9202 312.415,41.5869 313.5,39.5C 314.899,38.1103 316.566,37.1103 318.5,36.5C 320.027,36.573 321.027,35.9063 321.5,34.5C 323.749,33.9202 325.415,32.5869 326.5,30.5C 327.906,30.0269 328.573,29.0269 328.5,27.5C 329.906,27.0269 330.573,26.0269 330.5,24.5C 333.16,21.887 334.493,18.5537 334.5,14.5C 333.839,12.4436 334.172,10.4436 335.5,8.5 Z"/></g>
<g><path style="opacity:0.357" fill="#949494" d="M 335.5,8.5 C 338.794,7.94885 341.794,8.94885 344.5,11.5C 341.406,10.7866 338.406,9.78664 335.5,8.5 Z"/></g>
<g><path style="opacity:0.149" fill="#989898" d="M 346.5,12.5 C 348.027,12.427 349.027,13.0937 349.5,14.5C 347.973,14.573 346.973,13.9063 346.5,12.5 Z"/></g>
<g><path style="opacity:0.11" fill="#a2a2a2" d="M 351.5,15.5 C 353.027,15.427 354.027,16.0937 354.5,17.5C 352.973,17.573 351.973,16.9063 351.5,15.5 Z"/></g>
<g><path style="opacity:0.722" fill="#6d6d6d" d="M 334.5,14.5 C 334.493,18.5537 333.16,21.887 330.5,24.5C 331.658,21.0111 332.991,17.6777 334.5,14.5 Z"/></g>
<g><path style="opacity:0.831" fill="#6e6e6e" d="M 354.5,17.5 C 356.882,18.3507 358.882,19.684 360.5,21.5C 357.733,21.1298 355.733,19.7964 354.5,17.5 Z"/></g>
<g><path style="opacity:0.204" fill="#bfbfbf" d="M 321.5,18.5 C 322.152,19.4486 322.486,20.6153 322.5,22C 322.693,24.0081 322.026,25.5081 320.5,26.5C 321.265,23.9039 321.599,21.2372 321.5,18.5 Z"/></g>
<g><path style="opacity:0.035" fill="#dadada" d="M 294.5,15.5 C 296.019,18.5256 296.685,21.8589 296.5,25.5C 296.497,28.0254 296.163,30.3587 295.5,32.5C 295.625,26.7969 295.292,21.1302 294.5,15.5 Z"/></g>
<g><path style="opacity:0.431" fill="#757575" d="M 360.5,21.5 C 362.23,22.0256 363.564,23.0256 364.5,24.5C 362.368,24.4456 361.035,23.4456 360.5,21.5 Z"/></g>
<g><path style="opacity:0.267" fill="#9c9c9c" d="M 330.5,24.5 C 330.573,26.0269 329.906,27.0269 328.5,27.5C 328.427,25.9731 329.094,24.9731 330.5,24.5 Z"/></g>
<g><path style="opacity:0.447" fill="#717171" d="M 364.5,24.5 C 366.23,25.0256 367.564,26.0256 368.5,27.5C 366.368,27.4456 365.035,26.4456 364.5,24.5 Z"/></g>
<g><path style="opacity:0.565" fill="#7a7a7a" d="M 328.5,27.5 C 328.573,29.0269 327.906,30.0269 326.5,30.5C 326.427,28.9731 327.094,27.9731 328.5,27.5 Z"/></g>
<g><path style="opacity:0.012" fill="#c8c8c8" d="M 317.5,29.5 C 317.027,30.9063 316.027,31.573 314.5,31.5C 314.973,30.0937 315.973,29.427 317.5,29.5 Z"/></g>
<g><path style="opacity:0.643" fill="#6e6e6e" d="M 370.5,29.5 C 372.587,30.5846 373.92,32.2512 374.5,34.5C 372.413,33.4154 371.08,31.7488 370.5,29.5 Z"/></g>
<g><path style="opacity:0.412" fill="#7e7e7e" d="M 326.5,30.5 C 325.415,32.5869 323.749,33.9202 321.5,34.5C 322.585,32.4131 324.251,31.0798 326.5,30.5 Z"/></g>
<g><path style="opacity:0.024" fill="#c6c6c6" d="M 313.5,32.5 C 313.027,33.9063 312.027,34.573 310.5,34.5C 310.973,33.0937 311.973,32.427 313.5,32.5 Z"/></g>
<g><path style="opacity:0.537" fill="#7e7e7e" d="M 321.5,34.5 C 321.027,35.9063 320.027,36.573 318.5,36.5C 318.973,35.0937 319.973,34.427 321.5,34.5 Z"/></g>
<g><path style="opacity:0.004" fill="#c4c4c4" d="M 308.5,36.5 C 308.027,37.9063 307.027,38.573 305.5,38.5C 305.973,37.0937 306.973,36.427 308.5,36.5 Z"/></g>
<g><path style="opacity:0.243" fill="#a1a1a1" d="M 293.5,38.5 C 293.573,40.0269 292.906,41.0269 291.5,41.5C 291.427,39.9731 292.094,38.9731 293.5,38.5 Z"/></g>
<g><path style="opacity:0.004" fill="#c3c3c3" d="M 303.5,40.5 C 303.573,42.0269 302.906,43.0269 301.5,43.5C 301.427,41.9731 302.094,40.9731 303.5,40.5 Z"/></g>
<g><path style="opacity:0.667" fill="#787878" d="M 313.5,39.5 C 312.415,41.5869 310.749,42.9202 308.5,43.5C 309.585,41.4131 311.251,40.0798 313.5,39.5 Z"/></g>
<g><path style="opacity:0.208" fill="#a3a3a3" d="M 308.5,43.5 C 305.83,47.5082 303.164,51.5082 300.5,55.5C 301.665,50.5051 304.331,46.5051 308.5,43.5 Z"/></g>
<g><path style="opacity:0.235" fill="#757575" d="M 383.5,46.5 C 384.906,46.9731 385.573,47.9731 385.5,49.5C 384.094,49.0269 383.427,48.0269 383.5,46.5 Z"/></g>
<g><path style="opacity:0.382" fill="#989898" d="M 290.5,44.5 C 289.725,49.7968 289.392,55.1301 289.5,60.5C 288.837,58.5274 288.504,56.3608 288.5,54C 288.328,50.5226 288.994,47.356 290.5,44.5 Z"/></g>
<g><path style="opacity:0.624" fill="#5c5c5c" d="M 224.5,59.5 C 209.5,59.5 194.5,59.5 179.5,59.5C 186.828,58.6232 194.328,57.9565 202,57.5C 209.672,57.9565 217.172,58.6232 224.5,59.5 Z"/></g>
<g><path style="opacity:0.851" fill="#525252" d="M 388.5,55.5 C 390.065,57.5093 391.065,59.8427 391.5,62.5C 389.166,60.8243 388.166,58.491 388.5,55.5 Z"/></g>
<g><path style="opacity:0.749" fill="#575757" d="M 168.5,60.5 C 165.155,62.217 161.489,62.8836 157.5,62.5C 160.946,61.3126 164.613,60.6459 168.5,60.5 Z"/></g>
<g><path style="opacity:0.18" fill="#7e7e7e" d="M 233.5,60.5 C 239.767,60.6555 245.767,61.6555 251.5,63.5C 245.268,63.128 239.268,62.128 233.5,60.5 Z"/></g>
<g><path style="opacity:0.055" fill="#919191" d="M 251.5,63.5 C 254.428,63.5651 257.095,64.2318 259.5,65.5C 256.505,65.7062 253.838,65.0395 251.5,63.5 Z"/></g>
<g><path style="opacity:0.404" fill="#979797" d="M 300.5,55.5 C 299.217,62.8384 299.217,70.1717 300.5,77.5C 299.778,77.0825 299.278,76.4158 299,75.5C 298.833,72.6667 298.667,69.8333 298.5,67C 298.286,62.8673 298.952,59.034 300.5,55.5 Z"/></g>
<g><path style="opacity:0.533" fill="#797979" d="M 391.5,62.5 C 392.924,64.5145 393.59,66.8478 393.5,69.5C 392.076,67.4855 391.41,65.1522 391.5,62.5 Z"/></g>
<g><path style="opacity:0.596" fill="#595959" d="M 147.5,64.5 C 143.387,66.2825 139.054,67.6159 134.5,68.5C 138.403,66.1022 142.736,64.7689 147.5,64.5 Z"/></g>
<g><path style="opacity:0.471" fill="#707070" d="M 260.5,65.5 C 264.116,65.8993 267.45,66.8993 270.5,68.5C 266.786,68.4098 263.452,67.4098 260.5,65.5 Z"/></g>
<g><path style="opacity:0.545" fill="#818181" d="M 295.5,54.5 C 295.054,59.8518 294.387,65.1851 293.5,70.5C 292.295,69.4231 291.628,68.0898 291.5,66.5C 292.117,66.6107 292.617,66.944 293,67.5C 293.05,62.8729 293.883,58.5396 295.5,54.5 Z"/></g>
<g><path style="opacity:0.29" fill="#767676" d="M 276.5,70.5 C 278.553,70.4021 280.22,71.0687 281.5,72.5C 279.447,72.5979 277.78,71.9313 276.5,70.5 Z"/></g>
<g><path style="opacity:0.373" fill="#898989" d="M 284.5,73.5 C 286.553,73.4021 288.22,74.0687 289.5,75.5C 287.447,75.5979 285.78,74.9313 284.5,73.5 Z"/></g>
<g><path style="opacity:0.169" fill="#808080" d="M 393.5,69.5 C 394.768,71.9052 395.435,74.5718 395.5,77.5C 393.96,75.1617 393.294,72.4951 393.5,69.5 Z"/></g>
<g><path style="opacity:0.865" fill="#535353" d="M 292.5,76.5 C 295.157,76.9348 297.491,77.9348 299.5,79.5C 296.423,79.821 294.09,78.821 292.5,76.5 Z"/></g>
<g><path style="opacity:0.537" fill="#949494" d="M 436.5,107.5 C 434.203,105.706 432.037,103.706 430,101.5C 429.098,103.927 428.264,106.26 427.5,108.5C 427.063,105.193 427.73,102.193 429.5,99.5C 432.595,101.589 434.929,104.256 436.5,107.5 Z"/></g>
<g><path style="opacity:0.2" fill="#838383" d="M 395.5,80.5 C 398.168,96.0998 396.168,111.1 389.5,125.5C 394.487,110.924 396.487,95.9242 395.5,80.5 Z"/></g>
<g><path style="opacity:0.761" fill="#757575" d="M 436.5,107.5 C 438.914,108.911 440.581,110.911 441.5,113.5C 439.086,112.089 437.419,110.089 436.5,107.5 Z"/></g>
<g><path style="opacity:0.616" fill="#686868" d="M 77.5,110.5 C 76.4154,112.587 74.7488,113.92 72.5,114.5C 73.5846,112.413 75.2512,111.08 77.5,110.5 Z"/></g>
<g><path style="opacity:0.533" fill="#979797" d="M 427.5,110.5 C 427.568,114.57 426.568,118.237 424.5,121.5C 425.055,117.603 426.055,113.937 427.5,110.5 Z"/></g>
<g><path style="opacity:0.459" fill="#7a7a7a" d="M 72.5,114.5 C 72.0269,115.906 71.0269,116.573 69.5,116.5C 69.9731,115.094 70.9731,114.427 72.5,114.5 Z"/></g>
<g><path style="opacity:0.424" fill="#848484" d="M 69.5,116.5 C 69.0269,117.906 68.0269,118.573 66.5,118.5C 66.9731,117.094 67.9731,116.427 69.5,116.5 Z"/></g>
<g><path style="opacity:0.494" fill="#767676" d="M 66.5,118.5 C 66.0269,119.906 65.0269,120.573 63.5,120.5C 63.9731,119.094 64.9731,118.427 66.5,118.5 Z"/></g>
<g><path style="opacity:0.435" fill="#757575" d="M 444.5,117.5 C 446.262,118.262 447.262,119.596 447.5,121.5C 445.738,120.738 444.738,119.404 444.5,117.5 Z"/></g>
<g><path style="opacity:0.827" fill="#737373" d="M 424.5,122.5 C 424.834,125.491 423.834,127.824 421.5,129.5C 421.935,126.843 422.935,124.509 424.5,122.5 Z"/></g>
<g><path style="opacity:0.671" fill="#5f5f5f" d="M 52.5,125.5 C 50.3826,127.655 47.716,128.655 44.5,128.5C 46.936,127.129 49.6027,126.129 52.5,125.5 Z"/></g>
<g><path style="opacity:0.255" fill="#848484" d="M 452.5,128.5 C 453.906,128.973 454.573,129.973 454.5,131.5C 453.094,131.027 452.427,130.027 452.5,128.5 Z"/></g>
<g><path style="opacity:0.686" fill="#707070" d="M 30.5,131.5 C 27.0935,133.074 23.4268,134.074 19.5,134.5C 22.763,132.432 26.4296,131.432 30.5,131.5 Z"/></g>
<g><path style="opacity:0.886" fill="#595959" d="M 419.5,133.5 C 419.969,136.393 418.969,138.393 416.5,139.5C 416.992,137.181 417.992,135.181 419.5,133.5 Z"/></g>
<g><path style="opacity:0.227" fill="#a2a2a2" d="M 416.5,139.5 C 416.573,141.027 415.906,142.027 414.5,142.5C 414.427,140.973 415.094,139.973 416.5,139.5 Z"/></g>
<g><path style="opacity:0.486" fill="#7c7c7c" d="M 13.5,138.5 C 11.5,141.167 9.16667,143.5 6.5,145.5C 7.83333,142.167 10.1667,139.833 13.5,138.5 Z"/></g>
<g><path style="opacity:0.227" fill="#989898" d="M 413.5,144.5 C 412.92,146.749 411.587,148.415 409.5,149.5C 410.08,147.251 411.413,145.585 413.5,144.5 Z"/></g>
<g><path style="opacity:0.239" fill="#797979" d="M 463.5,146.5 C 464.906,146.973 465.573,147.973 465.5,149.5C 464.094,149.027 463.427,148.027 463.5,146.5 Z"/></g>
<g><path style="opacity:0.341" fill="#949494" d="M 409.5,149.5 C 408.581,152.089 406.914,154.089 404.5,155.5C 405.419,152.911 407.086,150.911 409.5,149.5 Z"/></g>
<g><path style="opacity:0.145" fill="#848484" d="M 469.5,157.5 C 470.906,157.973 471.573,158.973 471.5,160.5C 470.094,160.027 469.427,159.027 469.5,157.5 Z"/></g>
<g><path style="opacity:0.541" fill="#757575" d="M 404.5,155.5 C 401.769,159.234 398.436,162.234 394.5,164.5C 397.231,160.766 400.564,157.766 404.5,155.5 Z"/></g>
<g><path style="opacity:0.533" fill="#727272" d="M 394.5,164.5 C 394.027,165.906 393.027,166.573 391.5,166.5C 391.973,165.094 392.973,164.427 394.5,164.5 Z"/></g>
<g><path style="opacity:0.447" fill="#7d7d7d" d="M 391.5,166.5 C 391.027,167.906 390.027,168.573 388.5,168.5C 388.973,167.094 389.973,166.427 391.5,166.5 Z"/></g>
<g><path style="opacity:0.031" fill="#a9a9a9" d="M 336.5,174.5 C 334.485,175.924 332.152,176.59 329.5,176.5C 331.515,175.076 333.848,174.41 336.5,174.5 Z"/></g>
<g><path style="opacity:0.749" fill="#6a6a6a" d="M 325.5,177.5 C 323.167,178.167 320.833,178.833 318.5,179.5C 318.5,179.833 318.5,180.167 318.5,180.5C 317.078,180.291 315.745,179.791 314.5,179C 317.958,177.585 321.625,177.085 325.5,177.5 Z"/></g>
<g><path style="opacity:0.518" fill="#8c8c8c" d="M 366.5,178.5 C 350.849,184.251 334.849,184.918 318.5,180.5C 318.5,180.167 318.5,179.833 318.5,179.5C 326.124,180.775 333.791,181.775 341.5,182.5C 349.957,181.883 358.291,180.55 366.5,178.5 Z"/></g>
<g><path style="opacity:0.706" fill="#848484" d="M 6.5,180.5 C 8.74876,181.08 10.4154,182.413 11.5,184.5C 9.25124,183.92 7.58457,182.587 6.5,180.5 Z"/></g>
<g><path style="opacity:0.439" fill="#727272" d="M 11.5,184.5 C 13.4044,184.738 14.7377,185.738 15.5,187.5C 13.5956,187.262 12.2623,186.262 11.5,184.5 Z"/></g>
<g><path style="opacity:0.059" fill="#b2b2b2" d="M 17.5,188.5 C 19.0481,188.821 19.7148,189.821 19.5,191.5C 18.5987,190.71 17.9321,189.71 17.5,188.5 Z"/></g>
<g><path style="opacity:0.251" fill="#8e8e8e" d="M 19.5,192.5 C 20.9313,193.78 21.5979,195.447 21.5,197.5C 20.0687,196.22 19.4021,194.553 19.5,192.5 Z"/></g>
<g><path style="opacity:0.016" fill="#b3b3b3" d="M 23.5,201.5 C 24.9063,201.973 25.573,202.973 25.5,204.5C 24.0937,204.027 23.427,203.027 23.5,201.5 Z"/></g>
<g><path style="opacity:0.698" fill="#646464" d="M 124.5,218.5 C 128.489,218.116 132.155,218.783 135.5,220.5C 131.64,220.192 127.974,219.525 124.5,218.5 Z"/></g>
<g><path style="opacity:0.482" fill="#8a8a8a" d="M 145.5,222.5 C 148.152,222.41 150.485,223.076 152.5,224.5C 149.848,224.59 147.515,223.924 145.5,222.5 Z"/></g>
<g><path style="opacity:0.098" fill="#b3b3b3" d="M 53.5,222.5 C 53.573,224.027 52.9063,225.027 51.5,225.5C 51.427,223.973 52.0937,222.973 53.5,222.5 Z"/></g>
<g><path style="opacity:0.169" fill="#bcbcbc" d="M 72.5,222.5 C 72.573,224.027 71.9063,225.027 70.5,225.5C 70.427,223.973 71.0937,222.973 72.5,222.5 Z"/></g>
<g><path style="opacity:0.612" fill="#767676" d="M 152.5,224.5 C 155.716,224.345 158.383,225.345 160.5,227.5C 157.603,226.871 154.936,225.871 152.5,224.5 Z"/></g>
<g><path style="opacity:0.004" fill="#c9c9c9" d="M 51.5,225.5 C 51.573,227.027 50.9063,228.027 49.5,228.5C 49.427,226.973 50.0937,225.973 51.5,225.5 Z"/></g>
<g><path style="opacity:0.157" fill="#b8b8b8" d="M 70.5,225.5 C 70.573,227.027 69.9063,228.027 68.5,228.5C 68.427,226.973 69.0937,225.973 70.5,225.5 Z"/></g>
<g><path style="opacity:0.812" fill="#585858" d="M 161.5,227.5 C 164.491,227.166 166.824,228.166 168.5,230.5C 165.843,230.065 163.509,229.065 161.5,227.5 Z"/></g>
<g><path style="opacity:0.371" fill="#a1a1a1" d="M 56.5,239.5 C 55.8333,233.5 55.1667,227.5 54.5,221.5C 54.4614,220.244 54.9614,219.244 56,218.5C 56.4996,225.492 56.6663,232.492 56.5,239.5 Z"/></g>
<g><path style="opacity:0.161" fill="#b5b5b5" d="M 68.5,228.5 C 68.573,230.027 67.9063,231.027 66.5,231.5C 66.427,229.973 67.0937,228.973 68.5,228.5 Z"/></g>
<g><path style="opacity:0.027" fill="#c7c7c7" d="M 66.5,231.5 C 66.573,233.027 65.9063,234.027 64.5,234.5C 64.427,232.973 65.0937,231.973 66.5,231.5 Z"/></g>
<g><path style="opacity:0.016" fill="#d4d4d4" d="M 62.5,236.5 C 62.5,238.5 61.5,239.5 59.5,239.5C 60.1667,238.167 61.1667,237.167 62.5,236.5 Z"/></g>
<g><path style="opacity:0.271" fill="#959595" d="M 182.5,237.5 C 184.027,237.427 185.027,238.094 185.5,239.5C 183.973,239.573 182.973,238.906 182.5,237.5 Z"/></g>
<g><path style="opacity:0.22" fill="#ababab" d="M 185.5,239.5 C 187.027,239.427 188.027,240.094 188.5,241.5C 186.973,241.573 185.973,240.906 185.5,239.5 Z"/></g>
<g><path style="opacity:0.4" fill="#8a8a8a" d="M 190.5,242.5 C 192.404,242.738 193.738,243.738 194.5,245.5C 192.596,245.262 191.262,244.262 190.5,242.5 Z"/></g>
<g><path style="opacity:0.333" fill="#8f8f8f" d="M 194.5,245.5 C 196.027,245.427 197.027,246.094 197.5,247.5C 195.973,247.573 194.973,246.906 194.5,245.5 Z"/></g>
<g><path style="opacity:0.357" fill="#8f8f8f" d="M 197.5,247.5 C 199.749,248.08 201.415,249.413 202.5,251.5C 200.251,250.92 198.585,249.587 197.5,247.5 Z"/></g>
<g><path style="opacity:0.659" fill="#7e7e7e" d="M 202.5,251.5 C 205.089,252.419 207.089,254.086 208.5,256.5C 205.911,255.581 203.911,253.914 202.5,251.5 Z"/></g>
<g><path style="opacity:0.004" fill="#b7b7b7" d="M 214.5,262.5 C 215.5,262.833 216.167,263.5 216.5,264.5C 215.167,264.5 214.5,263.833 214.5,262.5 Z"/></g>
<g><path style="opacity:0.059" fill="#a6a6a6" d="M 218.5,266.5 C 219.906,266.973 220.573,267.973 220.5,269.5C 219.094,269.027 218.427,268.027 218.5,266.5 Z"/></g>
<g><path style="opacity:0.384" fill="#787878" d="M 222.5,271.5 C 224.446,272.035 225.446,273.368 225.5,275.5C 224.026,274.564 223.026,273.23 222.5,271.5 Z"/></g>
<g><path style="opacity:0.733" fill="#777777" d="M 232.5,285.5 C 234.796,286.733 236.13,288.733 236.5,291.5C 234.684,289.882 233.351,287.882 232.5,285.5 Z"/></g>
<g><path style="opacity:0.137" fill="#8b8b8b" d="M 237.5,293.5 C 238.906,293.973 239.573,294.973 239.5,296.5C 238.094,296.027 237.427,295.027 237.5,293.5 Z"/></g>
<g><path style="opacity:0.239" fill="#7e7e7e" d="M 151.5,318.5 C 146.138,318.472 140.805,318.806 135.5,319.5C 138.55,318.065 141.883,317.398 145.5,317.5C 147.696,317.505 149.696,317.838 151.5,318.5 Z"/></g>
<g><path style="opacity:0.565" fill="#717171" d="M 152.5,318.5 C 154.924,319.03 157.257,319.864 159.5,321C 160.252,321.671 160.586,322.504 160.5,323.5C 157.755,321.825 155.088,320.158 152.5,318.5 Z"/></g>
<g><path style="opacity:0.443" fill="#878787" d="M 132.5,320.5 C 132.027,321.906 131.027,322.573 129.5,322.5C 129.973,321.094 130.973,320.427 132.5,320.5 Z"/></g>
<g><path style="opacity:0.651" fill="#5f5f5f" d="M 129.5,322.5 C 128.089,324.914 126.089,326.581 123.5,327.5C 124.911,325.086 126.911,323.419 129.5,322.5 Z"/></g>
<g><path style="opacity:0.831" fill="#525252" d="M 302.5,327.5 C 302.101,331.116 301.101,334.45 299.5,337.5C 299.67,335.152 300.003,332.818 300.5,330.5C 300.64,328.97 301.307,327.97 302.5,327.5 Z"/></g>
<g><path style="opacity:0.031" fill="#a7a7a7" d="M 249.5,340.5 C 250.833,340.5 251.5,341.167 251.5,342.5C 250.5,342.167 249.833,341.5 249.5,340.5 Z"/></g>
<g><path style="opacity:0.733" fill="#848484" d="M 206.5,339.5 C 206.655,342.716 205.655,345.383 203.5,347.5C 204.129,344.603 205.129,341.936 206.5,339.5 Z"/></g>
<g><path style="opacity:0.165" fill="#acacac" d="M 454.5,342.5 C 453.651,344.888 452.651,347.221 451.5,349.5C 451.697,345.63 452.531,341.963 454,338.5C 454.49,339.793 454.657,341.127 454.5,342.5 Z"/></g>
<g><path style="opacity:0.867" fill="#3f3f3f" d="M 117.5,336.5 C 115.771,345.733 115.104,355.066 115.5,364.5C 113.022,357.028 112.856,349.361 115,341.5C 115.374,339.509 116.207,337.842 117.5,336.5 Z"/></g>
<g><path style="opacity:0.487" fill="#797979" d="M 212.5,359.5 C 211.855,360.812 210.855,361.812 209.5,362.5C 208.981,354.618 207.981,346.951 206.5,339.5C 206.393,337.621 206.893,337.288 208,338.5C 209.135,345.782 209.801,353.115 210,360.5C 210.671,359.748 211.504,359.414 212.5,359.5 Z"/></g>
<g><path style="opacity:0.455" fill="#818181" d="M 220.5,350.5 C 219.92,352.749 218.587,354.415 216.5,355.5C 217.08,353.251 218.413,351.585 220.5,350.5 Z"/></g>
<g><path style="opacity:0.875" fill="#565656" d="M 201.5,352.5 C 201.969,355.393 200.969,357.393 198.5,358.5C 198.992,356.181 199.992,354.181 201.5,352.5 Z"/></g>
<g><path style="opacity:0.486" fill="#868686" d="M 163.5,358.5 C 164.833,359.167 165.833,360.167 166.5,361.5C 164.5,361.5 163.5,360.5 163.5,358.5 Z"/></g>
<g><path style="opacity:0.827" fill="#737373" d="M 166.5,361.5 C 168.368,362.263 170.035,363.263 171.5,364.5C 168.966,364.741 167.3,363.741 166.5,361.5 Z"/></g>
<g><path style="opacity:0.894" fill="#6a6a6a" d="M 198.5,358.5 C 198.408,360.848 197.408,362.514 195.5,363.5C 195.75,361.326 196.75,359.659 198.5,358.5 Z"/></g>
<g><path style="opacity:0.337" fill="#8d8d8d" d="M 195.5,363.5 C 195.573,365.027 194.906,366.027 193.5,366.5C 193.427,364.973 194.094,363.973 195.5,363.5 Z"/></g>
<g><path style="opacity:0.192" fill="#8c8c8c" d="M 480.5,360.5 C 479.958,363.912 478.625,366.912 476.5,369.5C 477.042,366.088 478.375,363.088 480.5,360.5 Z"/></g>
<g><path style="opacity:0.506" fill="#868686" d="M 193.5,366.5 C 193.5,368.5 192.5,369.5 190.5,369.5C 191.167,368.167 192.167,367.167 193.5,366.5 Z"/></g>
<g><path style="opacity:0.18" fill="#a7a7a7" d="M 475.5,371.5 C 474.59,374.992 472.924,377.992 470.5,380.5C 471.41,377.008 473.076,374.008 475.5,371.5 Z"/></g>
<g><path style="opacity:0.012" fill="#bababa" d="M 278.5,377.5 C 278.573,379.027 277.906,380.027 276.5,380.5C 276.427,378.973 277.094,377.973 278.5,377.5 Z"/></g>
<g><path style="opacity:0.2" fill="#8c8c8c" d="M 457.5,366.5 C 458.167,376.833 458.833,387.167 459.5,397.5C 459.631,398.376 459.298,399.043 458.5,399.5C 457.501,388.52 457.168,377.52 457.5,366.5 Z"/></g>
<g><path style="opacity:0.027" fill="#c3c3c3" d="M 272.5,384.5 C 271.5,387.5 269.5,389.5 266.5,390.5C 268.167,388.167 270.167,386.167 272.5,384.5 Z"/></g>
<g><path style="opacity:0.102" fill="#c2c2c2" d="M 464.5,390.5 C 464.573,392.027 463.906,393.027 462.5,393.5C 462.427,391.973 463.094,390.973 464.5,390.5 Z"/></g>
<g><path style="opacity:0.184" fill="#969696" d="M 437.5,391.5 C 437.293,394.241 436.293,396.574 434.5,398.5C 434.707,395.759 435.707,393.426 437.5,391.5 Z"/></g>
<g><path style="opacity:0.016" fill="#c9c9c9" d="M 462.5,393.5 C 462.573,395.027 461.906,396.027 460.5,396.5C 460.427,394.973 461.094,393.973 462.5,393.5 Z"/></g>
<g><path style="opacity:0.067" fill="#c7c7c7" d="M 261.5,395.5 C 260.738,397.262 259.404,398.262 257.5,398.5C 258.262,396.738 259.596,395.738 261.5,395.5 Z"/></g>
<g><path style="opacity:0.078" fill="#bdbdbd" d="M 257.5,398.5 C 256.738,400.262 255.404,401.262 253.5,401.5C 254.262,399.738 255.596,398.738 257.5,398.5 Z"/></g>
<g><path style="opacity:0.878" fill="#5a5a5a" d="M 133.5,397.5 C 135.729,398.055 137.395,399.389 138.5,401.5C 135.914,402.48 133.247,402.813 130.5,402.5C 132.292,401.691 134.292,401.191 136.5,401C 135.29,399.961 134.29,398.794 133.5,397.5 Z"/></g>
<g><path style="opacity:0.114" fill="#b4b4b4" d="M 396.5,398.5 C 396.771,400.38 396.104,401.713 394.5,402.5C 394.66,400.847 395.326,399.514 396.5,398.5 Z"/></g>
<g><path style="opacity:0.031" fill="#c2c2c2" d="M 253.5,401.5 C 253.027,402.906 252.027,403.573 250.5,403.5C 250.973,402.094 251.973,401.427 253.5,401.5 Z"/></g>
<g><path style="opacity:0.216" fill="#a3a3a3" d="M 434.5,398.5 C 433.59,401.992 431.924,404.992 429.5,407.5C 430.41,404.008 432.076,401.008 434.5,398.5 Z"/></g>
<g><path style="opacity:0.639" fill="#6e6e6e" d="M 130.5,402.5 C 128.485,403.924 126.152,404.59 123.5,404.5C 125.515,403.076 127.848,402.41 130.5,402.5 Z"/></g>
<g><path style="opacity:0.031" fill="#c9c9c9" d="M 250.5,403.5 C 250.027,404.906 249.027,405.573 247.5,405.5C 247.973,404.094 248.973,403.427 250.5,403.5 Z"/></g>
<g><path style="opacity:0.118" fill="#b6b6b6" d="M 394.5,402.5 C 394.573,404.027 393.906,405.027 392.5,405.5C 392.427,403.973 393.094,402.973 394.5,402.5 Z"/></g>
<g><path style="opacity:0.937" fill="#4c4c4c" d="M 295.5,397.5 C 295.082,401.349 293.415,404.349 290.5,406.5C 291.41,403.008 293.076,400.008 295.5,397.5 Z"/></g>
<g><path style="opacity:0.42" fill="#898989" d="M 396.5,406.5 C 397.258,403.648 397.258,400.981 396.5,398.5C 396.971,397.099 397.638,395.766 398.5,394.5C 398.833,395 399.167,395.5 399.5,396C 398.971,399.757 397.971,403.257 396.5,406.5 Z"/></g>
<g><path style="opacity:0.204" fill="#9f9f9f" d="M 245.5,406.5 C 244.341,408.25 242.674,409.25 240.5,409.5C 241.659,407.75 243.326,406.75 245.5,406.5 Z"/></g>
<g><path style="opacity:0.122" fill="#b5b5b5" d="M 392.5,405.5 C 392.573,407.027 391.906,408.027 390.5,408.5C 390.427,406.973 391.094,405.973 392.5,405.5 Z"/></g>
<g><path style="opacity:0.365" fill="#8d8d8d" d="M 289.5,408.5 C 289.573,410.027 288.906,411.027 287.5,411.5C 287.427,409.973 288.094,408.973 289.5,408.5 Z"/></g>
<g><path style="opacity:0.196" fill="#868686" d="M 128.5,410.5 C 130.153,410.66 131.486,411.326 132.5,412.5C 130.62,412.771 129.287,412.104 128.5,410.5 Z"/></g>
<g><path style="opacity:0.322" fill="#a0a0a0" d="M 287.5,411.5 C 287.573,413.027 286.906,414.027 285.5,414.5C 285.427,412.973 286.094,411.973 287.5,411.5 Z"/></g>
<g><path style="opacity:0.463" fill="#787878" d="M 395.5,410.5 C 394.809,415.598 393.642,420.598 392,425.5C 391.8,427.32 390.966,428.653 389.5,429.5C 391.13,422.949 393.13,416.616 395.5,410.5 Z"/></g>
<g><path style="opacity:0.824" fill="#727272" d="M 136.5,414.5 C 141.165,415.057 145.498,416.39 149.5,418.5C 144.835,417.943 140.502,416.61 136.5,414.5 Z"/></g>
<g><path style="opacity:0.067" fill="#cecece" d="M 230.5,414.5 C 229.22,415.931 227.553,416.598 225.5,416.5C 226.78,415.069 228.447,414.402 230.5,414.5 Z"/></g>
<g><path style="opacity:0.051" fill="#b9b9b9" d="M 385.5,415.5 C 385.573,417.027 384.906,418.027 383.5,418.5C 383.427,416.973 384.094,415.973 385.5,415.5 Z"/></g>
<g><path style="opacity:0.169" fill="#b1b1b1" d="M 425.5,414.5 C 425.573,416.027 424.906,417.027 423.5,417.5C 423.427,415.973 424.094,414.973 425.5,414.5 Z"/></g>
<g><path style="opacity:0.059" fill="#b5b5b5" d="M 225.5,416.5 C 222.495,418.277 219.162,419.277 215.5,419.5C 218.505,417.723 221.838,416.723 225.5,416.5 Z"/></g>
<g><path style="opacity:0.737" fill="#737373" d="M 149.5,418.5 C 151.898,418.259 153.898,418.926 155.5,420.5C 153.214,420.405 151.214,419.738 149.5,418.5 Z"/></g>
<g><path style="opacity:0.927" fill="#535353" d="M 215.5,419.5 C 213.039,420.531 210.373,421.198 207.5,421.5C 207.611,420.883 207.944,420.383 208.5,420C 210.81,419.503 213.143,419.337 215.5,419.5 Z"/></g>
<g><path style="opacity:0.047" fill="#afafaf" d="M 381.5,420.5 C 381.573,422.027 380.906,423.027 379.5,423.5C 379.427,421.973 380.094,420.973 381.5,420.5 Z"/></g>
<g><path style="opacity:0.051" fill="#c2c2c2" d="M 419.5,423.5 C 419.573,425.027 418.906,426.027 417.5,426.5C 417.427,424.973 418.094,423.973 419.5,423.5 Z"/></g>
<g><path style="opacity:0.114" fill="#b4b4b4" d="M 378.5,424.5 C 377.92,426.749 376.587,428.415 374.5,429.5C 375.08,427.251 376.413,425.585 378.5,424.5 Z"/></g>
<g><path style="opacity:0.004" fill="#d3d3d3" d="M 417.5,426.5 C 417.573,428.027 416.906,429.027 415.5,429.5C 415.427,427.973 416.094,426.973 417.5,426.5 Z"/></g>
<g><path style="opacity:0.835" fill="#6c6c6c" d="M 389.5,429.5 C 389.834,432.491 388.834,434.824 386.5,436.5C 386.935,433.843 387.935,431.509 389.5,429.5 Z"/></g>
<g><path style="opacity:0.024" fill="#bfbfbf" d="M 413.5,431.5 C 413.573,433.027 412.906,434.027 411.5,434.5C 411.427,432.973 412.094,431.973 413.5,431.5 Z"/></g>
<g><path style="opacity:0.49" fill="#8b8b8b" d="M 285.5,414.5 C 282.245,419.602 278.745,424.602 275,429.5C 271.902,433.107 268.402,436.107 264.5,438.5C 271.529,430.475 278.529,422.475 285.5,414.5 Z"/></g>
<g><path style="opacity:0.329" fill="#888888" d="M 310.5,434.5 C 311.251,433.427 312.251,433.26 313.5,434C 312.956,434.717 312.289,435.217 311.5,435.5C 311.5,434.833 311.167,434.5 310.5,434.5 Z"/></g>
<g><path style="opacity:0.235" fill="#9b9b9b" d="M 310.5,434.5 C 310.5,434.833 310.5,435.167 310.5,435.5C 308.883,436.038 307.216,436.371 305.5,436.5C 306.78,435.069 308.447,434.402 310.5,434.5 Z"/></g>
<g><path style="opacity:0.055" fill="#cccccc" d="M 371.5,432.5 C 370.833,435.167 369.167,436.833 366.5,437.5C 367.833,435.5 369.5,433.833 371.5,432.5 Z"/></g>
<g><path style="opacity:0.467" fill="#949494" d="M 310.5,435.5 C 310.833,435.5 311.167,435.5 311.5,435.5C 311.262,437.404 310.262,438.738 308.5,439.5C 308.733,437.938 309.4,436.605 310.5,435.5 Z"/></g>
<g><path style="opacity:0.812" fill="#6b6b6b" d="M 386.5,436.5 C 386.459,440.236 385.126,443.236 382.5,445.5C 383.463,442.256 384.796,439.256 386.5,436.5 Z"/></g>
<g><path style="opacity:0.086" fill="#b1b1b1" d="M 409.5,436.5 C 408.92,438.749 407.587,440.415 405.5,441.5C 406.08,439.251 407.413,437.585 409.5,436.5 Z"/></g>
<g><path style="opacity:0.537" fill="#7e7e7e" d="M 264.5,438.5 C 262.761,441.243 260.427,443.243 257.5,444.5C 259.239,441.757 261.573,439.757 264.5,438.5 Z"/></g>
<g><path style="opacity:0.184" fill="#adadad" d="M 305.5,436.5 C 300.199,439.269 294.532,441.269 288.5,442.5C 293.801,439.731 299.468,437.731 305.5,436.5 Z"/></g>
<g><path style="opacity:0.027" fill="#cacaca" d="M 366.5,437.5 C 365.5,440.5 363.5,442.5 360.5,443.5C 362.167,441.167 364.167,439.167 366.5,437.5 Z"/></g>
<g><path style="opacity:0.125" fill="#bababa" d="M 288.5,442.5 C 276.333,447.373 263.666,449.706 250.5,449.5C 250.624,448.893 250.957,448.56 251.5,448.5C 252.274,449.147 253.274,449.48 254.5,449.5C 265.909,447.418 277.243,445.085 288.5,442.5 Z"/></g>
<g><path style="opacity:0.427" fill="#969696" d="M 255.5,445.5 C 254.738,447.262 253.404,448.262 251.5,448.5C 252.262,446.738 253.596,445.738 255.5,445.5 Z"/></g>
<g><path style="opacity:0.078" fill="#c5c5c5" d="M 355.5,448.5 C 354.415,450.587 352.749,451.92 350.5,452.5C 351.585,450.413 353.251,449.08 355.5,448.5 Z"/></g>
<g><path style="opacity:0.055" fill="#bfbfbf" d="M 401.5,445.5 C 398.833,450.167 395.167,453.833 390.5,456.5C 393.833,452.5 397.5,448.833 401.5,445.5 Z"/></g>
<g><path style="opacity:0.439" fill="#a3a3a3" d="M 308.5,439.5 C 301.54,449.46 293.207,458.127 283.5,465.5C 291.861,456.807 300.194,448.14 308.5,439.5 Z"/></g>
<g><path style="opacity:0.008" fill="#d9d9d9" d="M 349.5,453.5 C 348.415,455.587 346.749,456.92 344.5,457.5C 345.585,455.413 347.251,454.08 349.5,453.5 Z"/></g>
<g><path style="opacity:0.804" fill="#8a8a8a" d="M 378.5,453.5 C 378.408,455.848 377.408,457.514 375.5,458.5C 375.75,456.326 376.75,454.659 378.5,453.5 Z"/></g>
<g><path style="opacity:0.004" fill="#d4d4d4" d="M 344.5,457.5 C 344.027,458.906 343.027,459.573 341.5,459.5C 341.973,458.094 342.973,457.427 344.5,457.5 Z"/></g>
<g><path style="opacity:0.945" fill="#727272" d="M 386.5,460.5 C 385.738,462.262 384.404,463.262 382.5,463.5C 383.598,462.603 383.598,461.77 382.5,461C 383.793,460.51 385.127,460.343 386.5,460.5 Z"/></g>
<g><path style="opacity:0.035" fill="#d9d9d9" d="M 340.5,460.5 C 340.027,461.906 339.027,462.573 337.5,462.5C 337.973,461.094 338.973,460.427 340.5,460.5 Z"/></g>
<g><path style="opacity:0.173" fill="#c8c8c8" d="M 374.5,460.5 C 374.25,462.674 373.25,464.341 371.5,465.5C 371.75,463.326 372.75,461.659 374.5,460.5 Z"/></g>
<g><path style="opacity:0.961" fill="#696969" d="M 335.5,463.5 C 334.738,465.262 333.404,466.262 331.5,466.5C 332.598,465.603 332.598,464.77 331.5,464C 332.793,463.51 334.127,463.343 335.5,463.5 Z"/></g>
<g><path style="opacity:0.122" fill="#b9b9b9" d="M 380.5,465.5 C 380.027,466.906 379.027,467.573 377.5,467.5C 377.973,466.094 378.973,465.427 380.5,465.5 Z"/></g>
<g><path style="opacity:0.18" fill="#cacaca" d="M 371.5,465.5 C 371.5,466.167 371.5,466.833 371.5,467.5C 370.833,467.833 370.167,468.167 369.5,468.5C 369.427,466.973 370.094,465.973 371.5,465.5 Z"/></g>
<g><path style="opacity:0.991" fill="#404040" d="M 371.5,467.5 C 373.042,468.301 374.708,468.634 376.5,468.5C 375.421,470.543 373.754,471.876 371.5,472.5C 369.973,472.427 368.973,473.094 368.5,474.5C 367.508,474.672 366.842,474.338 366.5,473.5C 368.25,472.341 369.25,470.674 369.5,468.5C 370.167,468.167 370.833,467.833 371.5,467.5 Z"/></g>
<g><path style="opacity:0.024" fill="#cbcbcb" d="M 326.5,469.5 C 326.027,470.906 325.027,471.573 323.5,471.5C 323.973,470.094 324.973,469.427 326.5,469.5 Z"/></g>
<g><path style="opacity:0.188" fill="#bebebe" d="M 369.5,468.5 C 369.25,470.674 368.25,472.341 366.5,473.5C 366.75,471.326 367.75,469.659 369.5,468.5 Z"/></g>
<g><path style="opacity:0.306" fill="#acacac" d="M 283.5,465.5 C 278.364,471.306 272.364,475.973 265.5,479.5C 271.208,474.458 277.208,469.791 283.5,465.5 Z"/></g>
<g><path style="opacity:0.004" fill="#dfdfdf" d="M 371.5,472.5 C 371.027,473.906 370.027,474.573 368.5,474.5C 368.973,473.094 369.973,472.427 371.5,472.5 Z"/></g>
<g><path style="opacity:0.384" fill="#b2b2b2" d="M 366.5,473.5 C 366.842,474.338 367.508,474.672 368.5,474.5C 367.365,476.088 366.031,476.421 364.5,475.5C 364.855,474.478 365.522,473.811 366.5,473.5 Z"/></g>
<g><path style="opacity:0.298" fill="#acacac" d="M 319.5,473.5 C 309.346,480.224 298.346,485.224 286.5,488.5C 297.507,483.711 308.507,478.711 319.5,473.5 Z"/></g>
<g><path style="opacity:0.325" fill="#afafaf" d="M 265.5,479.5 C 264.738,481.262 263.404,482.262 261.5,482.5C 262.262,480.738 263.596,479.738 265.5,479.5 Z"/></g>
<g><path style="opacity:0.522" fill="#8e8e8e" d="M 261.5,482.5 C 261.027,483.906 260.027,484.573 258.5,484.5C 258.973,483.094 259.973,482.427 261.5,482.5 Z"/></g>
<g><path style="opacity:0.561" fill="#848484" d="M 258.5,484.5 C 258.027,485.906 257.027,486.573 255.5,486.5C 255.973,485.094 256.973,484.427 258.5,484.5 Z"/></g>
<g><path style="opacity:0.588" fill="#888888" d="M 253.5,487.5 C 253.027,488.906 252.027,489.573 250.5,489.5C 250.973,488.094 251.973,487.427 253.5,487.5 Z"/></g>
<g><path style="opacity:0.102" fill="#d1d1d1" d="M 286.5,488.5 C 279.942,491.682 272.942,493.682 265.5,494.5C 272.183,491.742 279.183,489.742 286.5,488.5 Z"/></g>
<g><path style="opacity:0.58" fill="#8d8d8d" d="M 244.5,492.5 C 244.027,493.906 243.027,494.573 241.5,494.5C 241.973,493.094 242.973,492.427 244.5,492.5 Z"/></g>
<g><path style="opacity:0.029" fill="#e1e1e1" d="M 265.5,494.5 C 256.822,497.121 247.822,498.455 238.5,498.5C 238.5,498.167 238.5,497.833 238.5,497.5C 247.51,496.61 256.51,495.61 265.5,494.5 Z"/></g>
<g><path style="opacity:0.659" fill="#7b7b7b" d="M 240.5,494.5 C 240.119,495.931 239.119,496.764 237.5,497C 237.728,497.399 238.062,497.565 238.5,497.5C 238.5,497.833 238.5,498.167 238.5,498.5C 237.833,498.5 237.5,498.833 237.5,499.5C 236.5,499.5 235.5,499.5 234.5,499.5C 233.402,498.603 233.402,497.77 234.5,497C 236.407,495.878 238.407,495.045 240.5,494.5 Z"/></g>
</svg>
