<?xml version="1.0" encoding="UTF-8"?>
<!DOCTYPE svg PUBLIC "-//W3C//DTD SVG 1.1//EN" "http://www.w3.org/Graphics/SVG/1.1/DTD/svg11.dtd">
<svg xmlns="http://www.w3.org/2000/svg" version="1.1" width="512px" height="512px" style="shape-rendering:geometricPrecision; text-rendering:geometricPrecision; image-rendering:optimizeQuality; fill-rule:evenodd; clip-rule:evenodd" xmlns:xlink="http://www.w3.org/1999/xlink">
<g><path style="opacity:0.99" fill="#000000" d="M 234.5,-0.5 C 249.5,-0.5 264.5,-0.5 279.5,-0.5C 360.575,9.46226 424.408,47.7956 471,114.5C 493.793,150.714 507.293,190.047 511.5,232.5C 511.5,247.5 511.5,262.5 511.5,277.5C 502.57,360.015 463.903,424.348 395.5,470.5C 324.445,364.931 253.945,258.931 184,152.5C 176.589,144.812 167.755,142.645 157.5,146C 155.04,147.458 152.873,149.291 151,151.5C 149.845,190.455 149.345,229.455 149.5,268.5C 149.667,306.167 149.833,343.833 150,381.5C 152.377,390.29 158.211,394.623 167.5,394.5C 175.169,394.589 180.669,391.255 184,384.5C 184.333,327.167 184.667,269.833 185,212.5C 246.333,302.5 307.667,392.5 369,482.5C 369.749,483.635 369.583,484.635 368.5,485.5C 339.976,499.679 309.976,508.346 278.5,511.5C 263.833,511.5 249.167,511.5 234.5,511.5C 145.964,501.168 78.4635,458.168 32,382.5C 13.9866,350.299 3.15325,315.966 -0.5,279.5C -0.5,263.833 -0.5,248.167 -0.5,232.5C 12.2115,134.224 63.2115,63.7236 152.5,21C 178.89,9.7374 206.223,2.57074 234.5,-0.5 Z M 336.5,139.5 C 344.206,138.665 351.539,139.831 358.5,143C 359.701,143.903 360.535,145.069 361,146.5C 361.667,214.167 361.667,281.833 361,349.5C 349.419,332.672 338.085,315.672 327,298.5C 326.333,248.5 326.333,198.5 327,148.5C 328.75,143.915 331.916,140.915 336.5,139.5 Z"/></g>
</svg>
