<?xml version="1.0" encoding="UTF-8"?>
<!DOCTYPE svg PUBLIC "-//W3C//DTD SVG 1.1//EN" "http://www.w3.org/Graphics/SVG/1.1/DTD/svg11.dtd">
<svg xmlns="http://www.w3.org/2000/svg" version="1.1" width="455px" height="512px" style="shape-rendering:geometricPrecision; text-rendering:geometricPrecision; image-rendering:optimizeQuality; fill-rule:evenodd; clip-rule:evenodd" xmlns:xlink="http://www.w3.org/1999/xlink">
<g><path style="opacity:0.949" fill="#000000" d="M 214.5,-0.5 C 222.833,-0.5 231.167,-0.5 239.5,-0.5C 304.267,36.3869 368.934,73.5536 433.5,111C 444.038,117.627 451.038,126.794 454.5,138.5C 454.5,216.5 454.5,294.5 454.5,372.5C 450.816,384.04 443.816,393.206 433.5,400C 368.606,437.656 303.606,474.822 238.5,511.5C 230.833,511.5 223.167,511.5 215.5,511.5C 190.273,497.548 165.273,483.048 140.5,468C 138.558,466.028 138.224,463.861 139.5,461.5C 145.122,459.237 150.789,457.07 156.5,455C 161.961,451.967 167.461,449.133 173,446.5C 190.419,455.764 207.586,465.597 224.5,476C 226.167,476.667 227.833,476.667 229.5,476C 279.575,447.213 329.575,418.546 379.5,390C 392.885,382.222 406.052,374.055 419,365.5C 419.667,292.167 419.667,218.833 419,145.5C 417.64,143.895 416.14,142.395 414.5,141C 353.598,106.544 292.931,71.5443 232.5,36C 228.833,34 225.167,34 221.5,36C 161.101,71.5306 100.434,106.531 39.5,141C 37.8603,142.395 36.3603,143.895 35,145.5C 34.3333,218.833 34.3333,292.167 35,365.5C 36.5578,367.359 38.3911,368.859 40.5,370C 56.6155,379.562 72.9489,388.896 89.5,398C 100.036,403.435 110.702,403.768 121.5,399C 124.333,396.833 126.833,394.333 129,391.5C 130.202,388.226 131.202,384.893 132,381.5C 132.333,308.5 132.667,235.5 133,162.5C 133.692,161.975 134.192,161.308 134.5,160.5C 144.817,159.334 155.151,159.168 165.5,160C 166.333,160.833 167.167,161.667 168,162.5C 168.667,238.5 168.667,314.5 168,390.5C 162.802,423.039 143.636,439.039 110.5,438.5C 103.376,438.691 96.3765,437.858 89.5,436C 81.1668,433.262 73.1668,429.929 65.5,426C 48.2843,416.172 31.2843,406.172 14.5,396C 10.9636,392.799 7.79693,389.299 5,385.5C 3.13232,381.108 1.29898,376.774 -0.5,372.5C -0.5,294.167 -0.5,215.833 -0.5,137.5C 3.24203,126.232 10.242,117.399 20.5,111C 85.093,73.5421 149.76,36.3754 214.5,-0.5 Z"/></g>
<g><path style="opacity:0.946" fill="#000000" d="M 272.5,153.5 C 290.836,153.068 308.836,155.234 326.5,160C 339.313,164.534 350.147,171.701 359,181.5C 362.898,188.173 366.231,195.173 369,202.5C 369.834,208.002 370.667,213.502 371.5,219C 371.923,222.027 370.923,224.36 368.5,226C 357.466,226.765 346.466,226.599 335.5,225.5C 331.509,201.353 317.175,189.186 292.5,189C 276.208,187.484 260.208,188.817 244.5,193C 233.861,197.783 229.028,205.95 230,217.5C 232.263,223.245 236.43,227.078 242.5,229C 265.981,234.021 289.648,238.021 313.5,241C 327.773,242.984 341.44,246.984 354.5,253C 366.778,259.713 374.611,269.88 378,283.5C 383.548,317.894 370.382,341.727 338.5,355C 331.171,356.998 323.838,358.998 316.5,361C 294.833,363 273.167,363 251.5,361C 244.5,359.333 237.5,357.667 230.5,356C 199.538,345.052 184.371,323.219 185,290.5C 185.833,289 187,287.833 188.5,287C 198.5,286.333 208.5,286.333 218.5,287C 221.37,293.952 223.87,301.118 226,308.5C 230.672,315.826 237.172,320.993 245.5,324C 270.08,329.575 294.747,329.908 319.5,325C 336.213,319.649 342.713,308.482 339,291.5C 336.408,288.238 333.241,285.738 329.5,284C 321.395,280.89 313.062,278.557 304.5,277C 287.872,274.672 271.206,272.672 254.5,271C 237.45,268.875 221.783,263.208 207.5,254C 199.053,246.272 193.886,236.772 192,225.5C 188.493,194.31 200.993,172.81 229.5,161C 243.542,155.955 257.875,153.455 272.5,153.5 Z"/></g>
</svg>
