<?xml version="1.0" encoding="UTF-8"?>
<!DOCTYPE svg PUBLIC "-//W3C//DTD SVG 1.1//EN" "http://www.w3.org/Graphics/SVG/1.1/DTD/svg11.dtd">
<svg xmlns="http://www.w3.org/2000/svg" version="1.1" width="424px" height="512px" style="shape-rendering:geometricPrecision; text-rendering:geometricPrecision; image-rendering:optimizeQuality; fill-rule:evenodd; clip-rule:evenodd" xmlns:xlink="http://www.w3.org/1999/xlink">
<g><path style="opacity:0.967" fill="#000000" d="M 209.5,-0.5 C 215.167,-0.5 220.833,-0.5 226.5,-0.5C 234.78,2.60415 241.114,8.10415 245.5,16C 304.723,142.277 364.057,268.444 423.5,394.5C 423.5,400.167 423.5,405.833 423.5,411.5C 421.53,414.328 419.697,417.328 418,420.5C 413.427,425.271 407.927,428.771 401.5,431C 314.913,456.646 228.246,481.98 141.5,507C 137.693,508.428 134.026,509.928 130.5,511.5C 124.5,511.5 118.5,511.5 112.5,511.5C 103.904,506.072 96.737,499.072 91,490.5C 60.2167,442.581 29.7167,394.581 -0.5,346.5C -0.5,340.167 -0.5,333.833 -0.5,327.5C 65.1998,219.932 131.533,112.766 198.5,6C 202.262,3.79359 205.929,1.62692 209.5,-0.5 Z M 226.5,64.5 C 229.059,64.3896 231.392,65.0562 233.5,66.5C 285.191,174.55 336.358,282.884 387,391.5C 387.667,393.833 387.667,396.167 387,398.5C 385.194,400.306 383.36,402.14 381.5,404C 304.02,427.101 226.353,449.934 148.5,472.5C 142.984,472.07 139.984,469.07 139.5,463.5C 167.102,331.123 194.935,198.79 223,66.5C 224.302,65.9152 225.469,65.2485 226.5,64.5 Z"/></g>
</svg>
