<?xml version="1.0" encoding="UTF-8"?>
<!DOCTYPE svg PUBLIC "-//W3C//DTD SVG 1.1//EN" "http://www.w3.org/Graphics/SVG/1.1/DTD/svg11.dtd">
<svg xmlns="http://www.w3.org/2000/svg" version="1.1" width="512px" height="512px" style="shape-rendering:geometricPrecision; text-rendering:geometricPrecision; image-rendering:optimizeQuality; fill-rule:evenodd; clip-rule:evenodd" xmlns:xlink="http://www.w3.org/1999/xlink">
<g><path style="opacity:0.983" fill="#000000" d="M 216.5,-0.5 C 239.833,-0.5 263.167,-0.5 286.5,-0.5C 307.239,1.58779 327.239,6.75446 346.5,15C 361.779,22.9454 372.945,34.7787 380,50.5C 381.652,98.4413 381.985,146.441 381,194.5C 374.633,224.2 356.466,241.7 326.5,247C 279.538,248.309 232.538,248.975 185.5,249C 147.568,250.593 125.068,270.093 118,307.5C 116.558,332.462 116.058,357.462 116.5,382.5C 57.7632,394.918 20.5966,372.585 5,315.5C 3.38615,305.336 1.55282,295.336 -0.5,285.5C -0.5,265.833 -0.5,246.167 -0.5,226.5C 1.88512,206.968 7.38512,188.301 16,170.5C 28.3176,148.912 46.8176,136.078 71.5,132C 133.166,131.5 194.832,131.333 256.5,131.5C 256.5,126.167 256.5,120.833 256.5,115.5C 214.833,115.5 173.167,115.5 131.5,115.5C 131.333,91.1644 131.5,66.8311 132,42.5C 134.718,31.4554 140.885,22.9554 150.5,17C 160.262,11.6376 170.595,7.63762 181.5,5C 193.315,3.19761 204.982,1.36428 216.5,-0.5 Z M 180.5,40.5 C 192.255,39.2932 200.755,43.9599 206,54.5C 208.897,70.4426 202.397,80.1093 186.5,83.5C 169.957,80.07 163.124,70.07 166,53.5C 167.833,51 169.667,48.5 171.5,46C 174.692,44.2719 177.692,42.4386 180.5,40.5 Z"/></g>
<g><path style="opacity:0.983" fill="#000000" d="M 511.5,206.5 C 511.5,237.833 511.5,269.167 511.5,300.5C 508.741,308.189 506.575,316.189 505,324.5C 500.862,333.443 496.195,342.11 491,350.5C 478.628,367.105 462.128,376.605 441.5,379C 379.834,379.5 318.168,379.667 256.5,379.5C 256.5,384.833 256.5,390.167 256.5,395.5C 298.167,395.5 339.833,395.5 381.5,395.5C 381.183,417.7 381.516,439.866 382.5,462C 381.782,465.461 381.282,468.961 381,472.5C 374.49,487.014 363.657,496.514 348.5,501C 331.672,505.865 314.672,509.365 297.5,511.5C 273.5,511.5 249.5,511.5 225.5,511.5C 215.688,509.363 205.688,507.529 195.5,506C 179.498,501.994 164.831,495.328 151.5,486C 140.733,476.972 134.233,465.472 132,451.5C 131.333,409.833 131.333,368.167 132,326.5C 135.054,288.629 155.554,267.462 193.5,263C 238.167,262.667 282.833,262.333 327.5,262C 363.542,261.295 386.042,243.461 395,208.5C 396.404,181.859 396.904,155.193 396.5,128.5C 416.533,128.103 436.533,128.603 456.5,130C 472.342,136.186 484.842,146.353 494,160.5C 501.846,175.17 507.679,190.504 511.5,206.5 Z M 322.5,428.5 C 337.854,427.688 346.854,434.854 349.5,450C 345.769,465.36 336.102,472.027 320.5,470C 304.968,461.097 302.302,449.263 312.5,434.5C 315.598,431.957 318.931,429.957 322.5,428.5 Z"/></g>
</svg>
