<?xml version="1.0" encoding="UTF-8"?>
<!DOCTYPE svg PUBLIC "-//W3C//DTD SVG 1.1//EN" "http://www.w3.org/Graphics/SVG/1.1/DTD/svg11.dtd">
<svg xmlns="http://www.w3.org/2000/svg" version="1.1" width="512px" height="512px" style="shape-rendering:geometricPrecision; text-rendering:geometricPrecision; image-rendering:optimizeQuality; fill-rule:evenodd; clip-rule:evenodd" xmlns:xlink="http://www.w3.org/1999/xlink">
<g><path style="opacity:0.952" fill="#000000" d="M 511.5,245.5 C 511.5,252.167 511.5,258.833 511.5,265.5C 505.499,283.612 494.499,298.112 478.5,309C 455.511,323.667 430.844,334.667 404.5,342C 414.454,375.476 415.954,409.31 409,443.5C 395.761,478.701 370.928,490.868 334.5,480C 315.83,473.502 298.83,464.169 283.5,452C 274.019,444.02 264.685,435.853 255.5,427.5C 234.313,448.849 209.98,465.682 182.5,478C 136.828,493.089 108.995,477.255 99,430.5C 95.6524,400.48 98.1524,370.98 106.5,342C 80.1556,334.667 55.4889,323.667 32.5,309C 16.5005,298.112 5.50053,283.612 -0.5,265.5C -0.5,258.833 -0.5,252.167 -0.5,245.5C 4.92205,228.54 14.9221,214.706 29.5,204C 39.342,197.243 49.6753,191.243 60.5,186C 75.605,179.467 90.9383,173.633 106.5,168.5C 96.5398,135.166 95.0398,101.499 102,67.5C 111.51,37.3371 132.01,24.1704 163.5,28C 187.236,33.5357 208.569,43.869 227.5,59C 237.021,66.931 246.354,75.0977 255.5,83.5C 277.268,61.1128 302.601,43.9461 331.5,32C 379.762,19.2293 406.929,37.7293 413,87.5C 414.815,114.997 411.982,141.997 404.5,168.5C 420.062,173.633 435.395,179.467 450.5,186C 470.823,194.662 487.99,207.495 502,224.5C 506.302,231.095 509.469,238.095 511.5,245.5 Z M 147.5,49.5 C 164.066,49.6312 179.399,54.1312 193.5,63C 210.279,73.4356 225.612,85.7689 239.5,100C 224.208,116.933 209.875,134.6 196.5,153C 174.488,155.383 152.655,158.883 131,163.5C 129.893,163.415 128.893,163.081 128,162.5C 120.774,136.912 118.441,110.912 121,84.5C 122.313,71.3651 128.146,60.8651 138.5,53C 141.571,51.7043 144.571,50.5377 147.5,49.5 Z M 350.5,49.5 C 372.179,48.0012 385.012,58.0012 389,79.5C 393.092,107.818 390.926,135.652 382.5,163C 359.971,159.115 337.305,155.781 314.5,153C 301.125,134.6 286.792,116.933 271.5,100C 293.61,76.3578 319.943,59.5245 350.5,49.5 Z M 254.5,116.5 C 265.674,126.85 275.674,138.35 284.5,151C 265.167,150.333 245.833,150.333 226.5,151C 235.288,139.046 244.622,127.546 254.5,116.5 Z M 222.5,173.5 C 248.855,173.132 275.188,173.632 301.5,175C 319.564,200.274 335.23,227.107 348.5,255.5C 335.028,283.761 319.361,310.594 301.5,336C 270.833,338 240.167,338 209.5,336C 191.639,310.594 175.972,283.761 162.5,255.5C 175.77,227.107 191.436,200.274 209.5,175C 214.019,174.825 218.353,174.325 222.5,173.5 Z M 177.5,177.5 C 179.028,177.517 179.528,178.184 179,179.5C 169.248,195.335 159.748,211.335 150.5,227.5C 144.392,214.182 139.058,200.516 134.5,186.5C 148.771,182.737 163.104,179.737 177.5,177.5 Z M 331.5,177.5 C 346.718,179.536 361.718,182.536 376.5,186.5C 371.942,200.516 366.608,214.182 360.5,227.5C 350.81,210.778 341.143,194.112 331.5,177.5 Z M 109.5,191.5 C 110.822,191.33 111.989,191.663 113,192.5C 119.892,214.012 128.059,235.012 137.5,255.5C 128.219,276.698 119.552,298.031 111.5,319.5C 87.1828,312.838 64.5161,302.671 43.5,289C 13.928,266.003 14.2613,243.337 44.5,221C 64.7894,207.967 86.456,198.133 109.5,191.5 Z M 398.5,191.5 C 425.126,197.815 449.459,208.982 471.5,225C 496.491,247.796 495.158,269.129 467.5,289C 446.112,303.455 422.946,313.289 398,318.5C 391.111,296.999 382.944,275.999 373.5,255.5C 383.018,234.611 391.351,213.278 398.5,191.5 Z M 149.5,282.5 C 150.458,282.953 151.292,283.619 152,284.5C 160.283,300.906 169.449,316.739 179.5,332C 164.227,331.232 149.227,328.732 134.5,324.5C 139.511,310.465 144.511,296.465 149.5,282.5 Z M 360.5,282.5 C 366.394,296.167 371.727,310.167 376.5,324.5C 361.77,328.733 346.77,331.233 331.5,332C 341.809,315.883 351.476,299.383 360.5,282.5 Z M 128.5,346.5 C 150.943,351.493 173.609,355.326 196.5,358C 210.076,376.246 224.409,393.913 239.5,411C 219.15,432.506 195.15,448.506 167.5,459C 142.82,465.577 127.653,456.41 122,431.5C 117.947,402.694 120.114,374.361 128.5,346.5 Z M 377.5,347.5 C 379.5,347.5 381.5,347.5 383.5,347.5C 386.972,363.332 389.472,379.332 391,395.5C 392.758,412.776 390.424,429.442 384,445.5C 373.884,460.743 360.051,465.243 342.5,459C 315.305,448.234 291.638,432.234 271.5,411C 286.591,393.913 300.924,376.246 314.5,358C 335.811,355.649 356.811,352.149 377.5,347.5 Z M 226.5,360.5 C 245.669,360.632 265.002,360.465 284.5,360C 275.418,372.003 265.751,383.503 255.5,394.5C 245.061,383.735 235.394,372.402 226.5,360.5 Z"/></g>
<g><path style="opacity:0.975" fill="#000000" d="M 247.5,209.5 C 275.806,207.664 293.639,220.331 301,247.5C 303.32,275.83 290.82,293.664 263.5,301C 235.17,303.32 217.336,290.82 210,263.5C 207.883,235.148 220.383,217.148 247.5,209.5 Z"/></g>
</svg>
