<?xml version="1.0" encoding="UTF-8"?>
<!DOCTYPE svg PUBLIC "-//W3C//DTD SVG 1.1//EN" "http://www.w3.org/Graphics/SVG/1.1/DTD/svg11.dtd">
<svg xmlns="http://www.w3.org/2000/svg" version="1.1" width="512px" height="512px" style="shape-rendering:geometricPrecision; text-rendering:geometricPrecision; image-rendering:optimizeQuality; fill-rule:evenodd; clip-rule:evenodd" xmlns:xlink="http://www.w3.org/1999/xlink">
<g><path style="opacity:0.978" fill="#000000" d="M 226.5,-0.5 C 245.833,-0.5 265.167,-0.5 284.5,-0.5C 375.4,12.845 442.567,59.845 486,140.5C 498.42,168.05 506.92,196.717 511.5,226.5C 511.5,245.833 511.5,265.167 511.5,284.5C 498.169,375.361 451.169,442.528 370.5,486C 342.951,498.42 314.285,506.92 284.5,511.5C 265.167,511.5 245.833,511.5 226.5,511.5C 135.53,498.13 68.3629,451.13 25,370.5C 12.5804,342.951 4.08045,314.285 -0.5,284.5C -0.5,265.167 -0.5,245.833 -0.5,226.5C 12.8145,135.686 59.8145,68.5197 140.5,25C 158.688,17.1155 177.355,10.4488 196.5,5C 206.712,3.58873 216.712,1.7554 226.5,-0.5 Z M 315.5,62.5 C 337.478,61.6639 358.811,64.8306 379.5,72C 414.935,89.0651 425.102,115.898 410,152.5C 395.973,184.861 372.806,208.361 340.5,223C 308.574,236.377 275.574,240.043 241.5,234C 227.19,229.184 216.857,220.017 210.5,206.5C 210.887,205.28 211.72,204.613 213,204.5C 229.183,219.664 248.349,225.164 270.5,221C 313.518,217.078 348.685,198.578 376,165.5C 381.978,156.211 386.311,146.211 389,135.5C 392.055,121.133 387.888,109.633 376.5,101C 356.433,91.7583 335.433,88.7583 313.5,92C 290.387,95.3459 268.054,101.346 246.5,110C 217.208,123.257 189.875,139.924 164.5,160C 155.22,168.274 147.053,177.441 140,187.5C 124.504,212.926 126.171,236.926 145,259.5C 160.322,274.601 176.822,288.434 194.5,301C 200.469,305.967 206.135,311.301 211.5,317C 225.32,314.098 239.32,312.264 253.5,311.5C 277.107,311.894 296.94,320.561 313,337.5C 319.481,346.217 323.314,356.05 324.5,367C 322.797,383.366 314.297,394.533 299,400.5C 298.25,399.874 297.416,399.374 296.5,399C 318.5,384.736 321.333,367.236 305,346.5C 291.876,335.873 276.709,330.04 259.5,329C 247.414,328.095 235.414,328.762 223.5,331C 223.043,331.414 222.709,331.914 222.5,332.5C 235.505,374.941 224.172,409.108 188.5,435C 168.805,447.004 147.805,450.004 125.5,444C 112.669,433.48 107.836,419.98 111,403.5C 112.554,398.061 114.388,392.728 116.5,387.5C 124.607,375.892 134.273,365.726 145.5,357C 152.833,352 160.167,347 167.5,342C 175.232,338.148 182.899,334.148 190.5,330C 192.061,329.059 193.395,327.892 194.5,326.5C 175.92,312.198 156.92,298.365 137.5,285C 126.333,275.833 116.167,265.667 107,254.5C 99.7071,243.914 95.2071,232.247 93.5,219.5C 94.2685,214.491 95.1018,209.491 96,204.5C 105.065,180.442 119.231,159.942 138.5,143C 181.361,106.399 230.361,81.0654 285.5,67C 295.656,65.5828 305.656,64.0828 315.5,62.5 Z"/></g>
<g><path style="opacity:0.932" fill="#000000" d="M 201.5,340.5 C 202.833,340.5 204.167,340.5 205.5,340.5C 212.518,375.945 200.518,402.445 169.5,420C 161.355,423.498 153.021,424.165 144.5,422C 142.333,421.167 140.833,419.667 140,417.5C 139.333,411.833 139.333,406.167 140,400.5C 146.176,384.153 156.343,370.82 170.5,360.5C 180.719,353.563 191.052,346.897 201.5,340.5 Z"/></g>
</svg>
