<?xml version="1.0" encoding="UTF-8"?>
<!DOCTYPE svg PUBLIC "-//W3C//DTD SVG 1.1//EN" "http://www.w3.org/Graphics/SVG/1.1/DTD/svg11.dtd">
<svg xmlns="http://www.w3.org/2000/svg" version="1.1" width="459px" height="512px" style="shape-rendering:geometricPrecision; text-rendering:geometricPrecision; image-rendering:optimizeQuality; fill-rule:evenodd; clip-rule:evenodd" xmlns:xlink="http://www.w3.org/1999/xlink">
<g><path style="opacity:0.845" fill="#000000" d="M 196.5,-0.5 C 218.5,-0.5 240.5,-0.5 262.5,-0.5C 278.67,0.419577 295.003,1.25291 311.5,2C 311.167,2.33333 310.833,2.66667 310.5,3C 348.856,5.79726 386.19,13.6306 422.5,26.5C 435.055,31.6609 446.055,38.9942 455.5,48.5C 456.753,51.1836 457.753,53.8503 458.5,56.5C 458.5,68.1667 458.5,79.8333 458.5,91.5C 457.616,94.0232 456.782,96.6898 456,99.5C 444.031,111.92 429.698,120.586 413,125.5C 402.758,129.344 392.258,132.178 381.5,134C 381.833,134.333 382.167,134.667 382.5,135C 360.612,139.222 338.612,142.722 316.5,145.5C 287.49,147.802 258.323,149.468 229,150.5C 200.923,149.447 172.09,147.78 142.5,145.5C 108.57,141.777 76.0701,135.11 45,125.5C 35.5178,122.009 26.3512,117.842 17.5,113C 11.9822,108.837 6.81554,104.337 2,99.5C 1.21774,96.6898 0.384409,94.0232 -0.5,91.5C -0.5,79.8333 -0.5,68.1667 -0.5,56.5C 2.80972,48.3265 8.30972,41.6598 16,36.5C 38.1011,24.4997 61.6011,16.1664 86.5,11.5C 122.809,4.61539 159.476,0.615386 196.5,-0.5 Z M 182.5,42.5 C 243.787,41.1358 304.953,43.1358 366,48.5C 376.806,49.8704 387.473,51.537 398,53.5C 401.117,54.5393 404.284,55.3727 407.5,56C 410.543,57.1185 413.21,58.7852 415.5,61C 412.846,63.1642 409.846,64.6642 406.5,65.5C 398.203,67.9041 389.869,69.7374 381.5,71C 296.108,79.9588 210.442,81.6255 124.5,76C 103.71,74.6513 83.043,72.1513 62.5,68.5C 55.3121,67.2365 48.6454,64.7365 42.5,61C 47.7234,57.3603 53.5568,54.8603 60,53.5C 100.666,47.4472 141.499,43.7805 182.5,42.5 Z"/></g>
<g><path style="opacity:0.812" fill="#000000" d="M -0.5,129.5 C 2.82295,131.562 4.98962,134.562 6,138.5C 11.5442,144.446 17.8775,149.446 25,153.5C 48.9928,164.369 74.6595,172.036 102,176.5C 186.55,189.828 271.216,189.828 356,176.5C 383.353,172.01 409.02,164.343 433,153.5C 442.939,148.487 450.439,141.154 455.5,131.5C 456.265,130.388 457.265,129.721 458.5,129.5C 458.5,238.167 458.5,346.833 458.5,455.5C 454.743,463.108 449.243,469.442 442,474.5C 419.857,486.503 396.357,494.836 371.5,499.5C 335.517,506.297 299.184,510.297 262.5,511.5C 240.5,511.5 218.5,511.5 196.5,511.5C 159.476,510.385 122.809,506.385 86.5,499.5C 69.0728,495.517 52.0728,490.517 35.5,484.5C 22.995,479.344 11.995,472.01 2.5,462.5C 1.24697,459.816 0.246967,457.15 -0.5,454.5C -0.5,346.167 -0.5,237.833 -0.5,129.5 Z M 94.5,251.5 C 106.827,252.666 119.16,253.833 131.5,255C 133.883,255.804 136.05,256.971 138,258.5C 138.667,267.167 138.667,275.833 138,284.5C 121.609,273.678 104.109,271.678 85.5,278.5C 80.5578,281.439 78.2245,285.772 78.5,291.5C 77.5417,296.746 79.2083,300.913 83.5,304C 88.3075,307.718 93.4741,310.885 99,313.5C 113.848,318.627 126.681,326.627 137.5,337.5C 148.442,357.241 146.108,375.241 130.5,391.5C 125.107,394.863 119.44,397.696 113.5,400C 104.427,401.638 95.4275,403.138 86.5,404.5C 74.7718,403.032 63.1051,401.199 51.5,399C 48.9449,397.555 46.2782,396.389 43.5,395.5C 43.1684,386.143 43.5017,376.81 44.5,367.5C 62.6958,381.097 82.5291,384.097 104,376.5C 106.672,375.161 108.672,373.161 110,370.5C 112.154,362.541 110.32,355.875 104.5,350.5C 102.359,349.192 100.359,347.692 98.5,346C 87.1764,340.501 75.843,335.001 64.5,329.5C 52.3885,321.732 45.3885,310.232 43.5,295C 44.8081,288.918 46.4748,282.918 48.5,277C 50.3801,274.742 51.8801,272.242 53,269.5C 59.735,262.842 67.5683,258.009 76.5,255C 82.9025,254.496 88.9025,253.329 94.5,251.5 Z M 236.5,251.5 C 276.405,254.195 299.905,275.195 307,314.5C 310.591,338.131 305.425,359.464 291.5,378.5C 284.013,387.613 274.68,394.113 263.5,398C 262.941,398.725 262.608,399.558 262.5,400.5C 276.412,418.674 294.746,425.507 317.5,421C 318,420.5 318.5,420 319,419.5C 319.5,427.493 319.666,435.493 319.5,443.5C 311.769,444.817 303.936,446.15 296,447.5C 291.595,446.152 287.095,445.319 282.5,445C 270.564,440.404 259.898,433.738 250.5,425C 244.741,418.285 238.741,411.785 232.5,405.5C 230.667,404.948 229,404.115 227.5,403C 198.403,400.692 178.236,385.525 167,357.5C 162.537,339.144 162.37,320.644 166.5,302C 178.396,269.226 201.729,252.393 236.5,251.5 Z M 334.5,254.5 C 345.187,254.168 355.854,254.501 366.5,255.5C 365.339,295.459 365.173,335.459 366,375.5C 384.757,376.493 403.59,376.826 422.5,376.5C 422.5,384.5 422.5,392.5 422.5,400.5C 393.167,400.5 363.833,400.5 334.5,400.5C 334.5,351.833 334.5,303.167 334.5,254.5 Z"/></g>
<g><path style="opacity:0.757" fill="#000000" d="M 225.5,279.5 C 249.56,275.99 265.393,285.656 273,308.5C 275.536,323.365 274.87,338.032 271,352.5C 262.316,372.631 247.149,380.298 225.5,375.5C 212.038,371.595 203.204,362.928 199,349.5C 195.548,334.451 195.715,319.451 199.5,304.5C 202.26,298.167 205.927,292.5 210.5,287.5C 215.196,283.989 220.196,281.322 225.5,279.5 Z"/></g>
</svg>
