<?xml version="1.0" encoding="UTF-8"?>
<!DOCTYPE svg PUBLIC "-//W3C//DTD SVG 1.1//EN" "http://www.w3.org/Graphics/SVG/1.1/DTD/svg11.dtd">
<svg xmlns="http://www.w3.org/2000/svg" version="1.1" width="512px" height="512px" style="shape-rendering:geometricPrecision; text-rendering:geometricPrecision; image-rendering:optimizeQuality; fill-rule:evenodd; clip-rule:evenodd" xmlns:xlink="http://www.w3.org/1999/xlink">
<g><path style="opacity:0.979" fill="#000000" d="M 511.5,152.5 C 511.5,153.833 511.5,155.167 511.5,156.5C 504.783,183.769 491.449,207.269 471.5,227C 451.568,243.541 428.568,252.875 402.5,255C 360.306,260.373 322.64,250.04 289.5,224C 275.529,211.029 261.862,197.696 248.5,184C 215.108,157.068 181.442,156.734 147.5,183C 140.261,189.569 133.761,196.735 128,204.5C 134.199,168.246 152.366,139.746 182.5,119C 212.585,103.056 244.585,97.5561 278.5,102.5C 305.307,105.575 328.973,115.742 349.5,133C 363.471,145.971 377.138,159.304 390.5,173C 423.858,199.928 457.525,200.262 491.5,174C 498.767,167.238 505.434,160.072 511.5,152.5 Z"/></g>
<g><path style="opacity:0.979" fill="#000000" d="M -0.5,358.5 C -0.5,357.167 -0.5,355.833 -0.5,354.5C 6.21724,327.231 19.5506,303.731 39.5,284C 59.1507,267.663 81.8174,258.33 107.5,256C 150.041,250.464 188.041,260.797 221.5,287C 235.471,299.971 249.138,313.304 262.5,327C 295.858,353.928 329.525,354.262 363.5,328C 370.739,321.431 377.239,314.265 383,306.5C 376.801,342.754 358.634,371.254 328.5,392C 299.73,407.352 269.063,413.019 236.5,409C 208.334,406.077 183.334,395.743 161.5,378C 147.529,365.029 133.862,351.696 120.5,338C 87.1083,311.068 53.4416,310.734 19.5,337C 12.2326,343.762 5.56592,350.928 -0.5,358.5 Z"/></g>
</svg>
