<?xml version="1.0" encoding="UTF-8"?>
<!DOCTYPE svg PUBLIC "-//W3C//DTD SVG 1.1//EN" "http://www.w3.org/Graphics/SVG/1.1/DTD/svg11.dtd">
<svg xmlns="http://www.w3.org/2000/svg" version="1.1" width="512px" height="512px" style="shape-rendering:geometricPrecision; text-rendering:geometricPrecision; image-rendering:optimizeQuality; fill-rule:evenodd; clip-rule:evenodd" xmlns:xlink="http://www.w3.org/1999/xlink">
<g><path style="opacity:0.995" fill="#000000" d="M -0.5,-0.5 C 170.167,-0.5 340.833,-0.5 511.5,-0.5C 511.5,170.167 511.5,340.833 511.5,511.5C 340.833,511.5 170.167,511.5 -0.5,511.5C -0.5,340.833 -0.5,170.167 -0.5,-0.5 Z M 376.5,233.5 C 410.859,228.592 437.192,240.592 455.5,269.5C 444.437,278.052 432.937,286.052 421,293.5C 416.96,287.583 412.127,282.416 406.5,278C 393.461,271.153 381.294,272.32 370,281.5C 364.147,293.151 365.647,303.651 374.5,313C 393.315,322.574 412.315,331.907 431.5,341C 466.522,361.716 477.688,391.55 465,430.5C 452.972,452.285 434.472,464.785 409.5,468C 377.854,472.944 349.52,465.611 324.5,446C 317.278,438.877 311.278,430.877 306.5,422C 318.471,414.009 330.805,406.509 343.5,399.5C 361.429,427.424 385.429,434.59 415.5,421C 423.884,412.844 425.718,403.344 421,392.5C 419.542,390.04 417.709,387.873 415.5,386C 399.843,376.672 383.509,368.672 366.5,362C 328.019,344.204 313.852,314.704 324,273.5C 334.45,250.88 351.95,237.547 376.5,233.5 Z M 120.5,235.5 C 177.506,235.27 234.506,235.604 291.5,236.5C 291.5,249.833 291.5,263.167 291.5,276.5C 269.167,276.5 246.833,276.5 224.5,276.5C 224.5,339.833 224.5,403.167 224.5,466.5C 209.167,466.5 193.833,466.5 178.5,466.5C 178.5,403.167 178.5,339.833 178.5,276.5C 156.5,276.5 134.5,276.5 112.5,276.5C 112.5,263.167 112.5,249.833 112.5,236.5C 115.385,236.806 118.052,236.473 120.5,235.5 Z"/></g>
</svg>
